<svg xmlns="http://www.w3.org/2000/svg" width="132" height="44" fill="none">
  <path fill="#292F36" d="M11.6337.976501v.185569l-.7708.18557v8.22213l.7708.18557v.18557H7.97946v-.18557l.77084-.18557V2.56098L5.7241 10.0694h-.38544L1.41317 2.56098v6.80895l1.02776.38541v.18557H0v-.18557l1.02777-.38541V1.34764l-.770839-.18557V.976501H1.85567c.24267 0 .45679.028549.62809.085649.17129.0571.34261.12847.47108.22839.14274.09992.25694.21412.35686.34259.09992.12847.18558.28549.27122.44251l2.7978 5.35295L8.5219 2.07564c.07137-.18557.14276-.34259.24269-.47106.08564-.12847.19981-.24267.32828-.34259.12847-.09992.28552-.17129.47109-.21412.18557-.04282.41394-.071369.69944-.071369h1.3703ZM16.202 3.36041c.5282 0 1.0135.07138 1.4275.22839.4139.15702.7708.38542 1.0706.67091.2997.29976.5139.65663.6709 1.07059.157.41396.2284.89929.2284 1.42745 0 .52816-.0714 1.01349-.2284 1.42745-.157.41397-.3854.77083-.6709 1.07059-.2998.29977-.6567.51389-1.0706.67091-.414.157-.8993.2284-1.4275.2284-.5281 0-1.0135-.0714-1.4274-.2284-.414-.15702-.7708-.38541-1.0706-.67091-.2998-.29976-.5139-.65662-.6709-1.07059-.157-.41396-.2284-.89929-.2284-1.42745 0-.52816.0714-1.01349.2284-1.42745.157-.41396.3854-.77083.6709-1.07059.2998-.29977.6566-.51389 1.0706-.67091.4139-.15701.885-.22839 1.4274-.22839Zm0 6.55201c.1428 0 .2855-.04282.4425-.14274.1428-.09992.2712-.25694.3854-.49961.1142-.24267.2142-.55671.2855-.95639.0714-.41397.1142-.92785.1142-1.54165 0-.62808-.0428-1.14197-.1142-1.54165-.0713-.39969-.1713-.72801-.2855-.9564-.1142-.22839-.2426-.39968-.3854-.4996-.1427-.09993-.2854-.14275-.4425-.14275-.1427 0-.2855.04282-.4425.14275-.1427.09992-.2712.25693-.3854.4996-.1142.24267-.2141.55671-.2855.9564-.0714.41396-.1142.92784-.1142 1.54165 0 .62807.0428 1.14196.1142 1.54165.0714.39968.1713.728.2855.95639.1142.22839.2427.39969.3854.49961.1428.08565.2855.14274.4425.14274ZM25.8369.976501c.7709 0 1.1563.385409 1.1563 1.156239v7.45131l.7708.18557v.18556h-1.1562c-.3141 0-.5568-.04282-.7423-.14274-.1856-.09992-.3426-.21412-.4425-.32831-.1285-.14275-.2284-.31404-.2855-.48534-.1142.22839-.257.41396-.4283.58526-.1427.14274-.3426.27121-.5852.39968-.2427.12847-.5282.18557-.8565.18557-.3711 0-.7137-.0714-1.0278-.21412-.3283-.14274-.5995-.35686-.8279-.64235-.2284-.28549-.4282-.64235-.5567-1.05631-.1427-.42824-.1998-.91358-.1998-1.48456 0-.57098.0714-1.05631.1998-1.48455.1428-.42823.3283-.77082.5853-1.05631.2426-.28549.5424-.49961.885-.64236.3426-.14274.728-.21412 1.1562-.21412.2284 0 .4283.02855.6138.07138.1856.05709.3426.11419.4711.18557.157.07137.2855.15702.3997.25694V1.39046l-.7708-.18557v-.18556h1.6415V.976501Zm-.8993 3.283139c-.0999-.09992-.1855-.18556-.2997-.25694-.0999-.07137-.1999-.12847-.3141-.18557-.1142-.05709-.2284-.07137-.3568-.07137-.157 0-.3141.04283-.4568.12847-.1428.08565-.257.22839-.3712.44251-.0999.21412-.1855.52816-.2426.91357-.0571.39969-.0857.8993-.0857 1.52738 0 .6138.0286 1.09914.0857 1.48455.0571.38541.1285.68518.2284.89929.0856.21412.1856.37114.314.44252.1142.07137.2284.11419.3426.11419.1998 0 .3711-.0571.5139-.15702.1427-.09992.2569-.22839.3568-.35686.1142-.15702.2142-.32832.2998-.51388V4.25964h-.0143ZM32.0605 10.1694c-1.0991 0-1.9556-.29979-2.5551-.89932-.6138-.59953-.9136-1.44173-.9136-2.49805 0-.52815.0714-1.01349.2284-1.42745.157-.41396.3711-.77083.6424-1.07059.2712-.29977.5995-.51388.9992-.6709.3854-.15702.8136-.2284 1.2847-.2284.4853 0 .9136.07138 1.2847.19985.3854.14274.6994.32831.9707.55671.2712.22839.471.4996.6138.81364.1427.31404.2141.64236.2141.99922 0 .1142 0 .22839-.0143.31404-.0143.08565-.0285.1713-.0428.24267-.0286.08565-.0429.15702-.0714.21412-.3711.07137-.7708.14274-1.1991.18556-.3568.0571-.7708.09993-1.2418.12848-.4711.02854-.9564.05709-1.4703.05709 0 .52816.0428.97067.1142 1.32754.0713.35686.1855.64235.314.84219.1428.21412.2998.35687.4853.44251.1856.08565.3998.12848.6139.12848.2569 0 .4996-.04283.7279-.14275.2284-.09992.4283-.21412.5853-.37114.1713-.15702.2998-.34259.3997-.54243.0999-.19984.1427-.39969.1427-.61381h.3141c0 .25695-.0571.49961-.1713.74228-.1142.24267-.2855.45678-.4996.64235-.2141.18557-.4711.32832-.7709.44251-.2854.1285-.6138.1856-.9849.1856Zm-1.2847-3.41164c.2855 0 .5424 0 .7708-.01427.2284-.01428.414-.02855.571-.04283.1856-.01427.3283-.04282.4568-.0571.0143-.08565.0428-.18557.0571-.28549.0143-.09992.0286-.19984.0428-.31404.0143-.11419.0143-.24266.0143-.37113 0-.38542-.0286-.71373-.0857-.97067-.0571-.25694-.1284-.47106-.2284-.64236-.0856-.15702-.1855-.28549-.314-.34259-.1285-.05709-.2284-.09992-.3426-.09992-.1142 0-.2284.04283-.3426.12847-.1141.08565-.2141.24267-.314.45679-.0856.22839-.1713.54243-.2284.95639-.0571.41396-.0571.94212-.0571 1.59875ZM40.2255 3.80287c-.2569 0-.4853.0571-.6852.15702-.1998.09992-.3711.22839-.5139.35686-.157.15702-.2855.32832-.4139.51389v4.75342l.7708.18557v.18557h-3.5972v-.18557l.7709-.18557V3.93134l-.7709-.18557V3.5602h1.1563c.2997 0 .5424.0571.7422.15702.1856.09992.3426.21412.4568.32832.1285.14274.2284.29976.2855.47106.1285-.18557.2855-.35687.4711-.51389.157-.12847.3569-.24266.5995-.35686.2427-.11419.5139-.15702.8422-.15702.4568 0 .7994.1142 1.0278.31404.2284.21412.3283.51388.3283.8993 0 .28549-.0857.52815-.257.69945-.1713.17129-.4139.25694-.6994.25694h-.1999c-.0713 0-.1141-.01427-.157-.01427-.0571-.01428-.1142-.01428-.157-.04283V3.80287ZM47.2198 5.47304c0-.28549-.0285-.54243-.0856-.75655-.0571-.21412-.1285-.38542-.2284-.51389-.0856-.14274-.1855-.24267-.314-.29976-.1142-.0571-.2284-.09992-.3426-.09992-.1999 0-.3712.05709-.5139.15702-.1427.09992-.2712.22839-.3569.35686-.1142.15702-.1998.32831-.2855.51388V9.5841l.7709.18557v.18557h-3.5972v-.18557l.7708-.18557V3.93139l-.7708-.18557v-.18557h1.1562c.2998 0 .5425.0571.7423.15702.1856.09992.3426.21412.4568.32831.1285.14275.2284.29977.2855.47106.1142-.21412.2569-.41396.4282-.58525.1428-.14275.3426-.27122.571-.39969.2284-.12847.5281-.18557.8707-.18557.3712 0 .7138.0571 1.0135.18557.3141.1142.571.28549.7851.47106.2141.19984.3855.41396.5139.6709.1285.25694.1856.51388.1856.7851v4.11107l.7708.18557v.18557h-1.6701c-.7708 0-1.1563-.38542-1.1563-1.15624V5.47304ZM1.35645 18.9767v-.5282h9.92075v.5282l-2.08405.5282v10.7772H16.673V19.5049l-2.0841-.5282v-.5282h9.9208v.5282l-2.0841.5282v22.2682l2.0841.5282v.5282h-9.9208v-.5425l2.0841-.5281v-10.606H9.19315v10.606l2.08405.5281v.5282H1.35645v-.5282l2.08407-.5281V19.4906l-2.08407-.5139ZM36.8424 24.8864c1.4418 0 2.7265.2141 3.8684.628 1.142.414 2.0984 1.0278 2.8977 1.8272.7994.7993 1.4132 1.77 1.8272 2.912.4139 1.1419.6281 2.4267.6281 3.8684s-.2142 2.7264-.6281 3.8684c-.414 1.1419-1.0278 2.0983-1.8272 2.8977-.7993.7994-1.77 1.4132-2.8977 1.8272-1.1419.4139-2.4266.628-3.8684.628-1.4417 0-2.7264-.2141-3.8684-.628-1.1419-.414-2.0983-1.0278-2.8977-1.8272-.7994-.7994-1.4132-1.77-1.8271-2.8977-.414-1.142-.6281-2.4267-.6281-3.8684s.2141-2.7265.6281-3.8684c.4139-1.142 1.0277-2.0984 1.8271-2.912.7994-.8137 1.7701-1.4132 2.8977-1.8272 1.142-.4139 2.4267-.628 3.8684-.628Zm0 17.7432c.3997 0 .7852-.1285 1.1848-.3854.3997-.257.7423-.6995 1.0563-1.3418.3141-.6424.571-1.5131.7709-2.6123.1998-1.0991.2997-2.498.2997-4.1967 0-1.6986-.0999-3.0975-.2997-4.1967-.1999-1.0991-.4568-1.9699-.7709-2.6122-.314-.6424-.6708-1.0849-1.0563-1.3418-.3854-.257-.7851-.3854-1.1848-.3854-.3997 0-.785.1284-1.1847.3854-.3997.2569-.7423.6994-1.0564 1.3418-.314.6423-.5709 1.5131-.7708 2.6122-.1998 1.0992-.2998 2.4981-.2998 4.1967 0 1.6987.1 3.0976.2998 4.1967.1999 1.0992.4568 1.9699.7708 2.6123.3141.6423.671 1.0848 1.0564 1.3418.3997.2569.785.3854 1.1847.3854ZM72.1433 30.6247c0-.8279-.0713-1.5416-.2141-2.0984-.1427-.5567-.314-1.0277-.5424-1.3846-.2284-.3568-.4711-.6138-.728-.7851-.2712-.157-.5282-.2427-.7851-.2427-.4425 0-.8279.1428-1.1705.4283-.3426.2855-.6281.6138-.885.9564-.2713.4139-.5282.885-.728 1.3846v12.8756l2.0983.5282v.5282h-9.7352v-.5282l2.0841-.5282V30.6247c0-.8279-.0714-1.5416-.2142-2.0984-.1427-.5567-.314-1.0277-.5424-1.3846-.2284-.3568-.471-.6138-.728-.7851-.2712-.157-.5282-.2427-.7851-.2427-.4425 0-.8279.1428-1.1705.4283-.3426.2855-.6281.6138-.885.9564-.2855.4139-.5282.885-.728 1.3846v12.8756l2.0841.5282v.5282H48.833v-.5282l2.0841-.5282V26.4565l-2.0841-.5281v-.5282h3.1261c.8137 0 1.4846.1428 1.9985.414.5281.2712.9278.5852 1.2419.8993.3426.3997.5995.8279.7708 1.2847.2997-.5853.6709-1.0992 1.1134-1.5702.3997-.3997.885-.7566 1.456-1.0849.5853-.3283 1.2847-.4853 2.1269-.4853 1.3846 0 2.598.314 3.5972.9278 1.0135.6138 1.7843 1.4132 2.3125 2.3839.2998-.5996.6709-1.142 1.1134-1.6416.3997-.4139.885-.7994 1.456-1.142.5852-.3425 1.2847-.5281 2.1269-.5281.9564 0 1.8129.157 2.6122.4568.7851.2997 1.4703.7137 2.0413 1.2419.571.5281 1.0135 1.1276 1.3275 1.8271.3141.6995.4711 1.4417.4711 2.2268v11.1342l2.0841.5281v.5282h-4.5251c-2.0841 0-3.1261-1.0421-3.1261-3.1261v-9.0501h-.0143ZM91.2852 43.329c-2.9691 0-5.2815-.8136-6.9231-2.4552-1.6416-1.6415-2.4695-3.8827-2.4695-6.7661 0-1.4417.2141-2.7264.6281-3.8684.4139-1.142.9992-2.0984 1.7415-2.912.7422-.7994 1.6415-1.4132 2.6979-1.8272 1.0563-.4139 2.2125-.628 3.4544-.628 1.299 0 2.4695.1855 3.4973.5567 1.0277.3711 1.9127.8707 2.6265 1.4988.7137.6281 1.2704 1.3704 1.6558 2.2126.3854.8422.571 1.7414.571 2.6978 0 .3284-.0143.6138-.0571.8565-.0428.2427-.0714.4568-.1285.6424-.0714.2284-.1285.4282-.1713.5852-1.0277.2141-2.0983.3854-3.2403.5282-.9706.1427-2.0984.2569-3.3688.3711-1.2704.0999-2.6122.157-3.9968.157 0 1.4418.0999 2.6408.314 3.5972.2141.9564.4996 1.7272.8707 2.2982.3712.571.8137.9707 1.3275 1.2134.5139.2426 1.0707.3711 1.6702.3711.6994 0 1.3561-.1285 1.9699-.3854.6138-.257 1.1419-.5995 1.5987-1.0278.4568-.4282.8137-.9136 1.0849-1.456s.3997-1.0991.3997-1.6558h.8707c0 .6994-.157 1.3703-.471 2.0127-.3141.6566-.7566 1.2276-1.3418 1.7272-.5853.4996-1.2705.8993-2.0841 1.1991-.8279.2997-1.7415.4567-2.7265.4567Zm-3.4829-9.2213c.7851 0 1.4845-.0143 2.084-.0571.5996-.0428 1.1135-.0714 1.5274-.1142.4853-.0428.8993-.0999 1.2562-.1713.0428-.2284.0999-.4853.1713-.7708.0428-.257.0856-.5425.1141-.8565.0286-.314.0572-.6423.0572-.9849 0-1.0421-.0857-1.9128-.2427-2.6266-.1571-.7137-.3712-1.2847-.6138-1.7272-.2427-.4425-.5282-.7565-.8279-.9421-.3141-.1856-.6281-.2855-.9279-.2855-.2998 0-.6138.1142-.9278.3283-.3141.2284-.5853.6424-.828 1.2562-.2426.6138-.4425 1.4845-.6137 2.598-.1428 1.1134-.2284 2.5694-.2284 4.3537ZM115.852 42.4583V28.3408l-12.476-9.878v23.9955h12.476ZM131.283 42.4583V28.3408l-12.276-9.878v23.9955h12.276Z"/>
</svg>
