<svg xmlns="http://www.w3.org/2000/svg" width="103" height="103" fill="none">
  <path fill="#fff" d="M51.4433 101.606c27.8606 0 50.4457-22.5854 50.4457-50.446 0-27.8607-22.5851-50.446255-50.4457-50.446255C23.5826.713745.99707 23.2993.99707 51.16c0 27.8606 22.58553 50.446 50.44623 50.446Z"/>
  <path fill="#292F36" d="M51.4431 102.32C23.2367 102.32.283203 79.3664.283203 51.1599.283203 22.9535 23.2367 0 51.4431 0c28.2065 0 51.1599 22.9535 51.1599 51.1599 0 28.2065-22.9534 51.1601-51.1599 51.1601Zm0-100.89255c-27.4213 0-49.73244 22.31115-49.73244 49.73245 0 27.4214 22.31114 49.7321 49.73244 49.7321 27.4214 0 49.7329-22.3107 49.7329-49.7321 0-27.4213-22.3115-49.73245-49.7329-49.73245Z"/>
  <path fill="#292F36" d="M58.638 5.83827c.3426.02855.6424.04282.8851.04282l-.0286.2284c-.3997.05709-.7423.35686-1.0135.92784L55.0837 13.832l-.1-.0143-.0856-.0142-2.1555-7.57982c-.1427-.49961-.3854-.77082-.728-.81365l.0286-.22839c.314.0571.728.09992 1.2419.15702.6709.0571 1.1705.09992 1.4988.09992l-.0285.22839c-.2998-.01427-.5139 0-.6424.04283-.1285.04282-.1998.15702-.2141.29976-.0143.12847.0143.31404.0856.55671l1.5845 5.79543 2.3553-4.73911c.1998-.38542.2998-.69946.3283-.92785.0286-.24267-.0428-.42823-.1998-.55671-.157-.12847-.414-.19984-.7566-.24266l.0286-.2284c.4139.07138.8564.12848 1.3132.1713ZM68.2301 8.85028c-.1428 0-.257.05709-.3426.17129-.0856.1142-.1856.29977-.2855.57098l-2.0413 5.42435c-.0999.2712-.157.4853-.157.6281 0 .1427.0429.2569.1428.3425.0999.0857.2855.1856.5424.2998l-.0856.2141c-.3284-.1427-.7851-.3283-1.3704-.5567-.6281-.2426-1.0991-.3997-1.4132-.4996l.0857-.2141c.2712.0856.471.1285.5995.1285.1285 0 .2569-.0571.3426-.1713.0856-.1142.1856-.2998.2855-.571l2.0412-5.42434c.1-.27121.1571-.48533.1571-.62807 0-.14275-.0429-.25695-.1428-.34259-.0999-.08565-.2855-.18557-.5424-.29977l.0856-.21412c.2998.12847.7566.31404 1.3847.55671.5852.22839 1.0563.38541 1.3989.48533l-.0857.21412c-.2569-.08564-.4568-.12847-.5995-.11419ZM80.9347 16.4014c-.1427-.0285-.2855.0143-.4139.1-.1285.0856-.2855.2569-.4568.4996l-4.1396 5.6099-.2142-.1571.5567-9.0215-3.6685 4.9676c-.1713.2426-.2855.4425-.3426.5995-.0571.157-.0285.2998.0428.4425.0714.1428.2427.2998.4854.4996l-.1428.1856c-.2141-.1856-.5281-.4282-.9421-.7423-.3711-.2712-.6709-.4853-.8993-.6138l.1427-.1856c.2284.1571.414.2427.5568.257.1427.0285.2854-.0143.4139-.0999.1285-.1.2855-.257.4568-.4996l3.3688-4.5679c.1713-.2427.2855-.4282.3283-.5567.0428-.1285.0286-.2569-.0428-.3711-.0714-.1142-.2141-.257-.4425-.4426l.1427-.1855c.1856.1713.4711.3997.8565.6709.2855.2141.5281.3854.7565.5139l-.4567 7.5655 2.9691-4.0254c.1713-.2427.2997-.4426.3425-.5996.0429-.157.0286-.2997-.0428-.4425-.0713-.1427-.2426-.314-.4853-.4996l.1427-.1856c.2142.1856.5282.4283.9422.7423.3711.2712.6709.4853.8992.6138l-.1427.1856c-.2427-.1428-.4282-.2427-.571-.257ZM85.716 22.8392c.3711-.2712.7565-.571 1.1705-.9421.3569.5424.985 1.4417 1.8843 2.7122.8992 1.2561 1.5416 2.1411 1.927 2.655-.4853.2855-.8993.5425-1.2704.7994-.3141.2284-.571.4282-.7566.5852l-.157-.2141c.4568-.3997.7708-.728.9564-.9706.1856-.2427.2569-.4996.2427-.7709-.0143-.2712-.1856-.5995-.4568-.9992l-.3712-.5139-5.41 3.8542c-.2569.1855-.4425.3568-.5282.4853-.0856.1285-.1142.2855-.0571.4568.0429.157.1713.3854.3569.6709l-.1856.1427c-.2141-.3426-.5424-.8279-.9706-1.4131-.4568-.6424-.7994-1.0992-1.0278-1.3847l.1856-.1427c.2141.2712.3854.4568.5281.5567.1428.0999.2855.1285.4425.0856.1571-.0428.3712-.157.6281-.3426l5.4101-3.8541-.3712-.5139c-.2855-.3997-.5424-.6423-.7851-.7565-.2426-.1142-.5139-.1285-.7993-.0286-.2855.1-.6995.2855-1.2277.5853l-.157-.2141c.2141-.1142.4711-.2855.7994-.5282ZM88.4568 42.6524l-.2284.0713c-.0856-.314-.1998-.7137-.3711-1.199-.2141-.6281-.3854-1.0992-.5139-1.4132l.2284-.0714c.0999.2712.2141.4711.2998.571.0999.0999.2284.1285.3711.0714.1285-.0429.2855-.1428.4711-.2998l1.5844-1.299-.8993-2.6693-1.3275-.0571c-.4282-.0286-.7565 0-.9849.0856-.2284.0857-.3712.2141-.4283.3997-.0428.1856-.0142.4568.0857.7851l-.2284.0714c-.1142-.4282-.257-.8565-.3997-1.2847-.1142-.3283-.2141-.5995-.314-.8137l.2284-.0713c.1998.3425.628.5281 1.2561.5424l7.5941.3426.0571.1713-6.0524 5.0389c-.3712.3568-.5139.6852-.4283 1.0278Zm4.9533-6.0667-3.7399-.157.8422 2.5123 2.8977-2.3553ZM89.4993 53.5724c.1428-.0571.2141-.1285.2141-.2284 0-.0571-.0142-.0999-.0428-.1427-.0285-.0429-.0856-.1285-.1713-.2427-.2141-.2712-.3711-.5567-.4853-.8422-.1142-.2855-.1713-.6138-.1713-.9707-.0143-.7993.1427-1.4845.4568-2.0698.3283-.5852.7851-1.0278 1.4132-1.3418.6138-.314 1.356-.4711 2.2268-.4853.8993-.0143 1.6844.1284 2.3553.4425.6709.314 1.199.7423 1.5702 1.3132.3711.571.571 1.2134.571 1.9271 0 .314-.0286.5995-.0857.8422-.0571.2427-.1427.4568-.2427.6424-.0999.1855-.2283.3996-.3996.628-.0714.1-.1142.1856-.1142.2427 0 .1428.2426.2427.7137.2855v.2712c-.4996-.0285-1.3989-.0285-2.6836 0v-.2712c.4139-.0714.7565-.157 1.0277-.2427.2713-.0856.4997-.2141.6995-.3711.2712-.2284.4996-.5282.6566-.8993.157-.3711.2284-.7423.2284-1.142-.0143-.5139-.1855-.9564-.5281-1.3418-.3426-.3854-.828-.6709-1.4418-.885-.628-.1998-1.3418-.2998-2.1697-.2855-.9421.0143-1.6987.1285-2.2982.3426-.5995.2141-1.0278.5282-1.3133.9421-.2854.414-.4139.9421-.3996 1.5845.0142.4711.1427.8707.3854 1.2133.0999.1428.1855.2284.2855.2712.0856.0429.2141.0571.3711.0571l1.1277-.0142c.3283 0 .5567-.0429.7137-.1.1428-.0571.257-.1712.2998-.3425.0571-.1571.0856-.414.0856-.7566h.2284c-.0143.3854-.0285.9279-.0143 1.6559.0143.5424.0286.9563.0571 1.2133h-.2284c-.0142-.1856-.0571-.314-.0999-.3854-.0428-.0714-.1427-.1285-.2712-.157-.1285-.0286-.3426-.0429-.6423-.0286l-2.3125.0428v-.2284c.1285-.0571.2855-.0856.4282-.1427ZM87.8007 65.72c-.4139-.1285-.8993-.257-1.456-.3712.1856-.4996.4568-1.3418.8422-2.5409.4568-1.4274.7851-2.5123.985-3.2403l.2284.0714c-.0714.2712-.1.4711-.1.6138.0143.1427.0714.2427.1856.3283.1142.0857.314.1713.5853.257l5.5242 1.7415c.2855.0856.4853.1284.6281.1284.1427 0 .2569-.0571.3426-.1713.0856-.1142.1713-.2997.2712-.5567l.2284.0714c-.257.728-.5995 1.7986-1.0563 3.226-.3426 1.0849-.5853 1.87-.6995 2.3411-.471-.1999-.8993-.3712-1.299-.4854-.2855-.0856-.5281-.157-.6994-.1855l.0856-.257c.4996.0999.8851.1428 1.142.1428.2569 0 .471-.0857.6423-.257.1713-.157.3141-.4425.4426-.8279l.2854-.9278c.0857-.2713.1285-.4711.1142-.5996-.0142-.1284-.0571-.2426-.1713-.3283-.1141-.0856-.2997-.1713-.5852-.2569l-2.6265-.828-.2284.7423c-.1142.3712-.0857.6567.0999.8565.1856.1998.3854.3426.6138.4425.2284.0999.3711.1713.4282.1998l-.0856.257c-.3569-.1428-.6995-.2712-1.042-.3711l-.5282-.1571c-.3711-.1142-.9136-.2712-1.5987-.4282l.0856-.2569c.0571.0142.2427.0428.5567.1142.314.057.5853.0285.7994-.0857.2141-.1142.3568-.3283.4568-.6281l.2284-.7423-2.6837-.8421c-.2854-.0857-.4853-.1285-.628-.1285-.1428 0-.257.0571-.3283.1713-.0857.1142-.1713.2997-.257.571l-.2569.8136c-.1428.4711-.1999.8422-.1428 1.1134.0428.2855.1856.5139.4283.7137.2426.1856.6138.3997 1.1134.6281l-.0857.257c-.1713-.1285-.4425-.2141-.7851-.3283ZM83.7326 83.2348c.0571-.1284.0429-.2569-.0142-.3854s-.1999-.2855-.414-.4996l-4.1967-4.0111c-.2141-.1999-.3854-.3283-.5139-.3854-.1285-.0571-.2569-.0571-.3854 0s-.2855.1855-.4853.3854l-.1713-.1571c.2712-.2426.6138-.5995 1.0563-1.042.4568-.4853.7993-.8565 1.0135-1.0991l.1713.157c-.1856.2141-.2998.3854-.3569.4996-.0571.1285-.0428.2569.0143.3854s.1998.2855.4139.4996l4.1967 4.0112c.2142.1998.3855.3283.5139.3854.1285.0571.257.0571.3854 0 .1285-.0571.2855-.1856.4854-.3854l.1713.157c-.2427.2141-.5996.571-1.0563 1.0563-.4426.4568-.7709.8279-.9993 1.0991l-.1713-.157c.1713-.2141.2855-.3854.3426-.5139ZM71.8421 91.9423c.0856-.1285.0999-.257.0714-.414-.0286-.157-.1285-.3569-.2855-.6281l-3.5401-6.0096.2284-.1427 8.0794 4.0397-3.1262-5.3101c-.157-.257-.2854-.4425-.4139-.5425-.1285-.0999-.2712-.1427-.4282-.1284-.1571.0142-.3712.0999-.6424.2426l-.1285-.1998c.257-.1142.5996-.3141 1.0421-.571.3997-.2427.6994-.4282.9135-.5853l.1142.1999c-.2284.1427-.3854.2855-.4568.414-.0856.1284-.0999.2569-.0713.4139.0285.157.1284.3569.2855.6281l2.8834 4.8962c.1428.2569.2712.4282.3854.5138.1142.0857.2284.1285.3712.1.1284-.0286.3283-.1.571-.2284l.1142.1998c-.2284.1142-.5425.2855-.9564.5282-.2998.1713-.5568.3426-.7709.4853l-6.7804-3.3831 2.5409 4.311c.157.2569.2855.4425.414.5424.1141.0999.2569.1427.4282.1285.1713-.0143.3854-.1.6566-.2427l.1142.1998c-.2569.1142-.5995.3141-1.042.571-.3997.2427-.6995.4282-.9136.5853l-.1142-.1999c.2141-.157.3711-.2997.4568-.4139ZM63.9906 93.8123c.1.4426.2284.9279.3997 1.4418-.6423.1142-1.7129.3426-3.226.6566-1.5131.3283-2.5694.571-3.1975.728-.0714-.5567-.1428-1.042-.2427-1.4845-.0856-.3855-.157-.6995-.2427-.9279l.257-.0571c.1856.5853.3569.9992.5139 1.2704.157.2713.3568.4426.6138.5282.2569.0856.6281.0714 1.0991-.0286l.6138-.1284-1.3989-6.4949c-.0714-.3141-.1427-.5425-.2427-.6709-.0999-.1285-.2141-.2142-.3854-.2284-.1713-.0286-.4282 0-.7708.0571l-.0428-.2284c.3997-.0571.9707-.1713 1.6844-.3283.7565-.1713 1.3275-.2998 1.6844-.3997l.0428.2284c-.3426.0856-.571.1713-.7137.2569-.1428.0857-.2284.2141-.257.3711-.0285.1571-.0142.3997.0571.7138l1.3989 6.4949.6138-.1285c.4711-.0999.8137-.2427 1.0135-.4282.1999-.1856.3141-.4283.3426-.728.0286-.2998.0143-.7566-.0571-1.3561l.257-.0571c.0428.2284.0999.5424.1855.9278ZM45.0487 89.8011c.0429-.4425.0571-.9421.0571-1.4989.5282.0714 1.4132.1571 2.6694.2713 1.4845.1284 2.6122.2284 3.383.2712l-.0142.2284c-.2855-.0143-.4854 0-.6138.0428-.1285.0428-.2284.1142-.2855.2427-.0571.1284-.1.3426-.1285.628l-.5139 5.7812c-.0285.2855-.0143.4996.0143.6424.0285.1427.1142.2426.2426.2997.1285.0571.3284.1142.5996.1428l-.0143.2284c-.7565-.0857-1.8842-.1999-3.3688-.3283-1.142-.1-1.9556-.157-2.4409-.1856.0999-.4996.1713-.9564.1998-1.3704.0286-.2997.0428-.5424.0286-.728l.2712.0286c.0142.5139.0428.885.1142 1.142.0571.2569.1855.4425.3854.5709.1856.1285.4996.2142.8993.2427l.9707.0856c.2854.0286.4853.0143.6138-.0142.1284-.0286.2283-.1142.2854-.2427.0571-.1285.1-.3426.1285-.6281l.2427-2.7407-.7708-.0714c-.3855-.0285-.6567.0571-.8137.2855-.1427.2284-.2569.4568-.2998.6995-.0571.2427-.0856.3997-.0999.471l-.2712-.0285c.0571-.3854.0999-.7423.1428-1.0991l.0428-.5567c.0285-.3997.0571-.9422.0856-1.6559l.2712.0286c0 .0571.0143.2426.0143.5709.0143.3284.0857.5853.257.7566.157.1856.3996.2855.7137.314l.7708.0714.2427-2.7978c.0285-.2855.0142-.4996-.0143-.6424-.0286-.1284-.1142-.2284-.2427-.2854-.1284-.0571-.3283-.1-.5995-.1285l-.8565-.0714c-.4853-.0428-.8564-.0143-1.1277.0999-.2569.0999-.4567.2998-.5995.571-.1427.2712-.2569.6852-.3711 1.2276l-.2712-.0285c0-.2141.0285-.4996.0713-.8422ZM33.8147 84.5053c.2141-.0429.4568 0 .7137.1142.2998.1284.4996.314.6138.5567.1142.2569.1285.6138.0571 1.0848l-.2141 1.1706c-.0714.4139-.1142.728-.1285.9706-.0142.2284.0429.4425.1428.6281.0999.1856.2855.3283.5567.4425l1.0278.4282 1.042-2.4837c.1142-.2712.1713-.4711.1856-.6138.0142-.1428-.0429-.257-.1428-.3569-.0999-.0999-.2712-.1998-.5281-.314l.0856-.2142c.3283.1571.7708.3569 1.3561.5996.6138.2569 1.0849.4425 1.3989.5424l-.0856.2141c-.2713-.0999-.4711-.1427-.5996-.157-.1427 0-.2569.0428-.3426.157-.0999.1-.1998.2855-.314.5567l-2.2411 5.353c-.1142.2712-.1713.471-.1856.6138-.0143.1427.0428.2569.1428.3569.0999.0999.2712.1998.5281.3283l-.0856.2141c-.2998-.1428-.728-.3426-1.299-.5853-.2855-.1142-.5853-.2426-.9279-.3854-.3425-.1427-.5709-.2284-.6994-.2855-.5567-.2426-.9992-.5138-1.3275-.8422-.3283-.3283-.5139-.6709-.5996-1.042-.0856-.3711-.0428-.728.1142-1.0849.1142-.2855.2998-.5424.5567-.7708.257-.2284.5853-.3997.985-.4853.3997-.0857.885-.0714 1.4132.0571l-.1285-.0714c-.2998-.1856-.5282-.3711-.6709-.571-.1428-.1856-.2427-.3997-.2712-.6281-.0429-.2284-.0286-.5139.0285-.8564l.1999-1.2134c.0428-.2426.0713-.4282.0713-.571 0-.1427-.0142-.2569-.0571-.3425-.0428-.0857-.1142-.1571-.2141-.1856-.1142-.0571-.2284-.0571-.3283-.0286-.0999.0286-.2427.1-.4282.1999l-.1142-.1856c.2569-.157.4996-.2712.7137-.314Zm.7137 5.0817c-.3426.0428-.6138.1713-.8279.3854-.2141.2141-.3997.4996-.5567.8708-.2427.5852-.2998 1.0991-.1427 1.5131.157.4139.5424.7565 1.1847 1.0277.2284.1.3997.1428.5425.1285.1284 0 .2426-.0571.3426-.1713.0999-.1142.1998-.2998.2997-.5567l1.1134-2.6551-.728-.2997c-.471-.1999-.885-.2855-1.2276-.2427ZM22.6803 86.4466c.1285.0428.2569.0143.3711-.0571.1142-.0714.2712-.2284.4568-.4568l3.5829-4.5678c.1856-.2284.2998-.414.3426-.5424.0428-.1285.0286-.257-.0428-.3712-.0714-.1142-.2141-.2712-.4282-.4568l.1427-.1855c.2712.2426.6424.5567 1.142.9421.5281.4139.9278.7137 1.199.8993l-.1427.1855c-.2284-.1712-.414-.2712-.5425-.2997-.1284-.0428-.2569-.0286-.3711.0571-.1142.0713-.2712.2284-.4568.4568l-3.5829 4.5678c-.1856.2284-.2997.414-.3426.5424-.0428.1285-.0285.257.0428.3712.0714.1142.2142.2712.4283.4568l-.1428.1855c-.2426-.2141-.628-.5281-1.1562-.9564-.4996-.3854-.8993-.6851-1.1848-.885l.1428-.1855c.2426.157.4139.2569.5424.2997ZM13.4586 76.2832c-.0571-.6424.0856-1.2847.4139-1.8985.3426-.6281.8565-1.1848 1.5702-1.713.6995-.4996 1.3989-.8279 2.1269-.9564.728-.1284 1.3989-.0856 2.027.157.6281.2427 1.1563.6567 1.5702 1.2419.4425.5996.6852 1.2276.7423 1.87.0571.6423-.0857 1.2847-.414 1.8985-.3426.6281-.8564 1.1848-1.5702 1.713-.6994.4996-1.3989.8279-2.1269.9563-.7137.1285-1.3989.0857-2.027-.157-.628-.2426-1.1562-.6566-1.5702-1.2276-.4425-.6138-.6851-1.2419-.7422-1.8842Zm2.1411 2.5408c.4997.1 1.0706.0571 1.6987-.1427.6281-.1998 1.2562-.5282 1.9128-1.0135.6566-.4711 1.1705-.9849 1.5274-1.5274.3711-.5424.571-1.0848.5995-1.5987.0428-.5139-.0856-.9707-.3569-1.3561-.2997-.3997-.6851-.6566-1.199-.7565-.4996-.1-1.0706-.0571-1.6987.1427-.6281.1998-1.2561.5282-1.9128.9992-.6566.4711-1.1705.985-1.5273 1.5417-.3712.5424-.571 1.0706-.6139 1.5987-.0428.5139.0857.9707.3569 1.3561.2998.3997.6995.6566 1.2133.7565ZM14.5577 59.0966c.1713.1285.2997.3426.3854.6281.0999.2998.0856.5853-.0286.8279-.1142.257-.3854.4996-.7993.7423l-1.0421.5852c-.3568.2142-.6281.3855-.8136.5282-.1856.1428-.3141.3141-.3854.5139-.0714.1998-.0714.4282.0142.7137l.3284 1.0706 2.5694-.7994c.2855-.0856.471-.1713.5852-.2569.1142-.0857.1713-.1998.1856-.3283.0143-.1285-.0286-.3426-.0999-.6138l.2284-.0714c.0856.3426.2141.8279.4139 1.4275.1999.6423.3569 1.1134.4711 1.4131l-.2284.0714c-.0999-.2712-.1856-.4568-.2712-.5567-.0857-.0999-.1999-.1713-.3426-.1713-.1428 0-.3569.0286-.6281.1285l-5.53851 1.7129c-.28549.0857-.47106.1713-.58526.257-.11419.0856-.17129.1998-.18556.3283-.01428.1427.02854.3426.09992.6138l-.2284.0714c-.07137-.3141-.19984-.7709-.38541-1.3704-.08565-.2855-.19984-.6138-.31404-.9564-.11419-.3426-.19984-.5853-.24266-.7137-.18557-.5853-.24267-1.0992-.19985-1.5559.04283-.4568.18557-.828.41396-1.1277.2284-.2998.52816-.4996.8993-.6138.28549-.0857.59953-.1142.94212-.0714.34259.0428.67089.1856 1.01349.4425s.6281.6281.8707 1.1277l-.0142-.1428c-.0429-.3568-.0571-.6423 0-.885.0571-.2426.157-.4425.2997-.6138.1571-.1713.3854-.3568.6852-.5281l1.0563-.6281c.2141-.1142.3854-.2284.4854-.3141.0999-.0856.1855-.1713.2284-.2569.0428-.0857.0428-.1856.0142-.2855-.0428-.1285-.0999-.2141-.1855-.2712-.0857-.0571-.2284-.1285-.4283-.1999l.0714-.2141c.2855.1.5282.2141.6852.3426Zm-3.4116 3.8256c-.2427-.2284-.5282-.3569-.828-.3854-.2997-.0286-.64231.0143-1.02773.1427-.6138.1856-1.02776.4854-1.25616.8708-.22839.3854-.22839.9135-.02854 1.5559.07137.2284.15702.3997.24266.4996.08565.0999.21412.157.35687.157.14274 0 .35686-.0428.6138-.1142l2.7407-.8564-.2284-.7566c-.1427-.5139-.3426-.885-.5852-1.1134ZM13.4587 45.5501c.5425-.2427.8708-.6995 1.0135-1.3846.0429-.257.0429-.5139-.0285-.7566-.0714-.2427-.1999-.4568-.3997-.6423-.1998-.1856-.4711-.3141-.8279-.3712-.2998-.0571-.571-.0285-.8279.0714-.257.0999-.5139.2569-.7566.4711-.2427.2141-.5281.4996-.8422.8564-.3569.3997-.6709.728-.94211.9564-.27121.2427-.57098.414-.89929.5425-.32832.1284-.69946.1427-1.11342.0713-.42823-.0856-.7851-.2426-1.04204-.4996-.25694-.2569-.44251-.5567-.52816-.9136-.08564-.3568-.08564-.728-.01427-1.1276.04282-.2427.09992-.4283.17129-.5996.07138-.1713.14275-.2997.2284-.3997.08564-.0999.17129-.2141.28549-.3283.14274-.157.21411-.2712.24266-.3568.01428-.0714-.01427-.1285-.08564-.1856-.07138-.0571-.19985-.0999-.37114-.157l.04282-.257c.44251.1142 1.21334.2855 2.34103.4996l-.04283.257c-.39968-.0428-.77082-.0286-1.14196.0571-.35686.0714-.6709.2284-.92785.471-.25694.2284-.42823.5567-.4996.9564-.0571.2713-.04283.5139.02855.7566.07137.2427.19984.4282.37113.5852.18557.1571.39969.257.65663.3141.41396.0714.77083.0143 1.07059-.1856.29977-.1998.58526-.4568.85647-.7565.27122-.2998.44252-.4996.54245-.5996.3997-.4282.728-.7565.9992-.9992.2712-.2427.571-.4139.8993-.5281.3283-.1142.6852-.1285 1.0706-.0571.471.0856.8565.2712 1.142.5424.2854.2855.471.6138.5709 1.0135.1.3997.1.8279.0143 1.2847-.0714.3711-.157.6566-.2855.885-.1142.2284-.2712.4282-.4425.6138-.1427.157-.2141.2712-.2427.3569-.0142.0714.0143.1285.0857.1856.0714.057.1998.1141.3711.157l-.0428.2569c-.414-.1142-1.3275-.2998-2.7407-.5567l.0428-.2569c.7994.0713 1.456 0 1.9984-.2427ZM10.6321 33.5165c-.3997-.2141-.8565-.4139-1.37038-.6138.31404-.5567.84218-1.5273 1.55588-2.912.7138-1.3703 1.2134-2.341 1.4846-2.9262.4711.2997.8993.5567 1.2847.7565.3426.1856.6424.314.8708.414l-.1285.2426c-.571-.2284-.9992-.3711-1.299-.4139-.2998-.0571-.571 0-.7994.1427-.2284.1428-.4568.4283-.6709.8565l-.2855.571 5.8954 3.069c.2855.157.5139.2284.6709.2427.157.0142.2998-.0286.4283-.1428.1284-.1142.2712-.3283.4425-.6281l.2141.1142c-.2141.3569-.4854.8565-.8279 1.5131-.3569.6852-.6138 1.2134-.7709 1.5417l-.2141-.1142c.1428-.3141.2427-.5567.257-.7137.0285-.1713-.0143-.3141-.1285-.4425-.1142-.1285-.2998-.257-.5853-.414l-5.8954-3.0833-.2997.5567c-.2284.4282-.3283.7708-.3141 1.042.0143.2713.1285.5139.3426.728.2141.2142.571.4996 1.0849.828l-.1285.2426c-.1855-.1142-.471-.2712-.8136-.4568ZM20.7105 17.1153c.2426-.2427.4425-.4711.5852-.6424l.1713.1713c-.0856.1285-.1285.314-.1142.5282.0143.2141.0714.5138.1856.8707l1.299 3.8684 1.5131 1.4988c.2141.1999.3711.3426.4996.3997.1285.0571.2569.0571.3854 0s.2855-.1856.4996-.3711l.1713.1713c-.2712.2426-.6281.5852-1.0706 1.0277-.471.4711-.8136.8422-1.0278 1.0849l-.1712-.1713c.1855-.2141.314-.3711.3711-.4996.0571-.1285.0571-.2569-.0143-.3854-.0571-.1285-.1998-.2998-.3997-.4996l-1.2561-1.2419-4.7677-1.3989c-.2855-.0857-.4996-.1142-.6424-.0999-.1427.0142-.2427.0571-.314.1284l-.1713-.1713c.2284-.1998.4853-.4282.7423-.6994.5281-.5424.9135-.9279 1.1276-1.1848l.1713.1713c-.3854.3854-.471.6852-.2569.8993.0856.0856.1998.1427.3711.1998l4.0112 1.2419-1.0563-3.1547c-.1571-.4567-.3141-.7708-.4854-.9278-.157-.157-.3283-.1998-.5139-.1427-.1855.0571-.3996.1998-.6566.4425l-.1713-.1713c.3426-.3141.6567-.6281.985-.9421ZM29.346 11.3626c-.0857.0999-.1285.2284-.1.3711.0286.1428.1.3426.2427.5996l2.755 5.1103c.1427.2569.2569.4282.3711.5281.1.0999.2284.1285.3569.1142.1285-.0143.3283-.0999.571-.2284l.7565-.4139c.4283-.2284.728-.4711.8851-.7138.157-.2426.2141-.5139.1712-.8422-.0428-.3283-.1712-.7422-.3996-1.2847l.2426-.1284c.0999.2283.2427.5138.4283.8564.2141.3854.471.8137.7851 1.2847-.4711.2284-1.2705.6424-2.3696 1.2419-1.3133.7137-2.3125 1.2562-2.9691 1.6416l-.1142-.1999c.2427-.1427.414-.2712.4996-.3711.0856-.0999.1285-.2284.0999-.3711-.0285-.1428-.0999-.3426-.2426-.5996l-2.7836-5.1102c-.1427-.257-.2569-.4283-.3711-.5282-.0999-.0999-.2284-.1285-.3569-.1142-.1427.0143-.3283.0857-.5852.2141l-.1-.2141c.2998-.1285.7423-.3569 1.3276-.6852.5567-.2997.9849-.5424 1.2847-.728l.1142.1999c-.2427.1427-.3997.2712-.4996.3711ZM46.7328 12.276c.0857.4283.2141.9136.3712 1.456-.5282.0857-1.3989.2427-2.6266.4854-1.4702.2855-2.5694.5139-3.3259.6852l-.0428-.2284c.2712-.0714.471-.1285.5852-.2142.1142-.0713.1856-.1855.1999-.314.0142-.1427 0-.3569-.0571-.6423l-1.1135-5.69559c-.0571-.28549-.1141-.48533-.1998-.6138-.0856-.12847-.1713-.19985-.314-.21412-.1285-.02855-.3426-.01428-.6138.02855l-.0429-.2284c.7566-.12847 1.87-.32831 3.326-.6138 1.1277-.22839 1.9271-.38541 2.3838-.49961.0429.51388.1142.97067.1856 1.37036.0571.29976.1142.52815.1713.69945l-.2569.0571c-.157-.48534-.2998-.8422-.4283-1.07059-.1284-.2284-.314-.37114-.5281-.44251-.2284-.07138-.5282-.07138-.9421.01427l-.9564.18557c-.2713.0571-.4711.1142-.5853.18557-.1142.07137-.1856.17129-.2141.31404-.0143.14274 0 .35686.0571.64235l.5281 2.71216.7566-.157c.3854-.0714.6138-.24268.6994-.49962.0857-.25695.1142-.49961.1-.74228-.0143-.24267-.0286-.39969-.0286-.47106l.257-.0571c.0428.38541.0999.74228.1713 1.08487l.1142.54239c.0713.3855.1998.9279.3854 1.6131l-.257.0571c-.0143-.0571-.0713-.2284-.1713-.5425-.0999-.314-.2426-.5281-.4568-.6566-.2141-.1285-.4567-.157-.7708-.0999l-.7565.1427.5424 2.755c.0571.2855.1142.4853.1856.6138.0713.1142.1713.1856.314.2141.1285.0143.3426 0 .6138-.0571l.8422-.1713c.4711-.0999.8279-.2284 1.0563-.3996.2284-.1713.3569-.414.414-.7138.0571-.2997.0571-.728.0143-1.2847l.2569-.0571c.0428.2141.0857.4854.157.8279Z"/>
  <path fill="#292F36" stroke="#fff" stroke-miterlimit="10" d="M37.1113 66.7905c-.6566-.885-1.2276-1.8557-1.7272-2.9263-.4996-1.0706-.8993-2.1554-1.1991-3.2688-.6566-4.8962-.6709-9.6496-.0571-14.2603.6138-4.6107 1.613-9.15 2.9834-13.6322.2284-.4996.728-.7423 1.4988-.7423.7709 0 1.5274.1713 2.2982.5139.7709.3426 1.3989.7994 1.8985 1.3704.4997.571.6139 1.1705.3426 1.7843-.4282.9136-.8422 2.1555-1.2561 3.6971-.414 1.5559-.8279 3.2689-1.1991 5.1388-.3854 1.87-.7137 3.8399-.9992 5.8812-.2855 2.0412-.4996 4.0111-.6281 5.8811-.1285 1.8699-.157 3.5686-.0856 5.0817.0713 1.5131.2997 2.7122.6851 3.5829 1.7986-2.4124 3.4402-4.9104 4.939-7.4941 1.4989-2.5837 2.8978-5.196 4.211-7.8653 1.3133-2.6551 2.5694-5.3387 3.7542-8.0651 1.1848-2.7122 2.3553-5.3958 3.4973-8.0366.571-1.3418 1.142-2.755 1.6987-4.2395.5567-1.4988 1.2847-2.7693 2.2125-3.8399.3854-.3426.6852-.4567.885-.3426.2141.1142.3569.3284.4283.6567.0713.3283.1142.6709.1142 1.0277v.828c-.2713 1.7557-.4996 3.4972-.6852 5.2244-.1856 1.7273-.5995 3.3831-1.1991 4.9961-.9992 2.5266-2.0127 5.0247-3.069 7.5227-1.0563 2.4838-2.184 4.939-3.3831 7.3514-1.199 2.4124-2.5123 4.7534-3.8969 7.0231-1.3989 2.2839-2.912 4.4536-4.5679 6.5092-1.2989 1.6415-2.5979 2.5123-3.8684 2.6122-1.3275.1142-2.5123-.5567-3.6257-1.9699ZM60.75 60.3099c-.7708-1.0706-1.5274-2.1555-2.2696-3.2689-.7423-1.1134-1.1135-2.3267-1.1135-3.6685 0-1.4846.4283-2.8978 1.2847-4.2253.8565-1.3132 1.8415-2.3838 2.9549-3.1832.4568-.2998.9278-.5567 1.3989-.7423.471-.1856.9849-.1713 1.5274.0571.2283.1142.471.1999.7137.257.2426.0571.471.1284.6566.1998.1856.0714.3997.1856.6281.3426.2284.157.3426.3569.3426.6281 0 1.0706.0285 1.9413.0856 2.6122s.1428 1.2419.257 1.7272c.1142.4854.2284.8993.3426 1.2562.1142.3711.2283.7565.3425 1.1705.0714.3854.0571.7137-.0571.9707-.1141.2712-.3996.2997-.8564.1142-.8422-.2998-1.4703-.9136-1.87-1.8415-.3997-.9278-.6994-1.7557-.885-2.5265-.0428-.1571-.1285-.414-.2855-.7994-.157-.3854-.2427-.6566-.2855-.7994-.2998-.0714-.6709.0286-1.0849.314-.4139.2855-.7993.6852-1.1134 1.1706-.3283.4996-.5424 1.0705-.6281 1.7272-.0999.6566.0286 1.299.3712 1.9556.157.2284.3711.5139.6566.8279.2855.3283.571.6566.8565.9992.2855.3426.571.6852.8565.9992.2855.3141.5281.5853.7137.7709.2284.2284.3854.3568.4568.3711.0713.0143.2712-.0285.571-.1427.3854-.1856.9706-.4425 1.7557-.7423.7851-.2998 1.613-.6138 2.4695-.9136.8565-.2997 1.6844-.5567 2.4695-.7708.7851-.2141 1.3846-.3141 1.8129-.3141.2712 0 .4568.1.571.2855.1142.1142.0999.2713-.0571.4568-.1571.1856-.3569.3854-.5996.571-.2426.1856-.5139.3569-.7708.5139-.2712.157-.4425.2427-.5139.2855-.6566.3854-1.4703.8136-2.4695 1.299-.9992.471-1.8557.9421-2.5837 1.3989-.0713.0713-.2141.157-.4282.2284-.2141.0713-.3711.157-.4853.2284.4568 1.0277.7851 1.927.9706 2.6693.1856.7423.257 1.456.1999 2.1554-.0571.6852-.1999 1.3847-.4283 2.0984-.2283.7137-.5424 1.5274-.9135 2.4409-.5425.8851-1.0849 1.7273-1.6416 2.5266-.5567.7994-1.1705 1.5274-1.87 2.184-.6851.6567-1.4417 1.1706-2.2411 1.5417-.7993.3854-1.6844.571-2.6408.571-.5424 0-1.0563-.0714-1.5559-.1999-.4996-.1284-.9136-.4139-1.2561-.8279-.8851-.9564-1.3704-1.9984-1.4846-3.1261-.1142-1.1277-.0143-2.2411.2855-3.3545.2284-.6852.5139-1.3133.8565-1.8985.8422-1.456 1.77-2.6837 2.7835-3.6971 1.0278-.9993 2.0841-1.9699 3.1975-2.8835Zm1.9556 2.5837c-.4282.4282-.9992 1.0278-1.7272 1.8129-.728.7851-1.3989 1.6415-2.0413 2.5551-.628.9136-1.1419 1.8271-1.5416 2.7264-.3997.8993-.4996 1.6702-.3141 2.3268.7709-.3426 1.556-.9136 2.3553-1.6987.7994-.7851 1.5131-1.6416 2.127-2.5837.6138-.9421 1.042-1.8699 1.2847-2.7835.2426-.9279.1998-1.713-.1428-2.3553Z"/>
  <path fill="#292F36" d="M51.4436 83.5489c-17.8574 0-32.3889-14.5315-32.3889-32.3889 0-17.8575 14.5315-32.3889 32.3889-32.3889 17.8575 0 32.3889 14.5314 32.3889 32.3889 0 17.8574-14.5314 32.3889-32.3889 32.3889Zm0-63.3504c-17.0723 0-30.9615 13.8891-30.9615 30.9615 0 17.0723 13.8892 30.9614 30.9615 30.9614 17.0724 0 30.9615-13.8891 30.9615-30.9614 0-17.0724-13.8891-30.9615-30.9615-30.9615Z"/>
</svg>
