<svg xmlns="http://www.w3.org/2000/svg" width="164" height="44" fill="none">
  <path fill="#292F36" d="M35.3997 43.5479H8.58142c-4.40715 0-7.978881-3.5717-7.978881-7.9789V8.7508c0-4.40715 3.571731-7.978888 7.978881-7.978888H35.3997c4.4071 0 7.9789 3.571738 7.9789 7.978888V35.569c0 4.4072-3.5718 7.9789-7.9789 7.9789Z"/>
  <path fill="#fff" d="M29.6972 22.5534c.7628.9565 1.1502 2.0704 1.1502 3.3296 0 1.8524-.6175 3.3053-1.8524 4.3345-1.235 1.0291-3.0027 1.5619-5.3032 1.5619H13.6426v-21.612h9.8071c2.2036 0 3.8986.4843 5.0973 1.4408 1.1986.9565 1.804 2.3246 1.804 4.0923 0 1.3076-.3511 2.3852-1.0412 3.257-.6902.8717-1.5982 1.4286-2.7242 1.695 1.3197.3148 2.3488.9444 3.1116 1.9009Zm-10.8363-3.5475h3.4265c1.8161 0 2.7242-.7749 2.7242-2.3247 0-1.5497-.9323-2.3246-2.7848-2.3246h-3.3659v4.6493Zm6.635 6.1506c0-.7749-.2543-1.3802-.7628-1.8161-.5085-.4359-1.235-.6538-2.1673-.6538H18.873v4.8551h3.7292c1.9251-.0121 2.8937-.7991 2.8937-2.3852Z"/>
  <path fill="#292F36" d="m68.1628 31.7794-4.6735-8.1605h-1.1866v8.1605h-5.2304v-21.612h8.9232c1.7072 0 3.1601.2905 4.3346.8838 1.1865.5933 2.0703 1.4045 2.6636 2.4336.5933 1.0292.8839 2.2036.8839 3.5354 0 1.574-.4359 2.9059-1.2955 4.0076-.8718 1.1018-2.1189 1.8525-3.7776 2.2642l5.1336 8.4995h-5.7753v-.0121Zm-5.8601-11.7323h3.2327c1.0413 0 1.8041-.23 2.2884-.6901.4843-.4601.7385-1.1381.7385-2.0341 0-.8596-.2542-1.5255-.7506-2.0219-.4964-.4843-1.2592-.7386-2.2763-.7386h-3.2327v5.4847ZM97.5355 27.8444h-8.1l-1.3439 3.9471h-5.4969l7.9184-21.4546h6.0174l7.9185 21.4546h-5.5575l-1.356-3.9471Zm-1.344-3.9834-2.6878-7.9426-2.7242 7.9426h5.412ZM133.301 31.7794h-5.23l-8.742-13.2699v13.2699h-5.23v-21.612h5.23l8.742 13.3909V10.1674h5.23v21.612ZM162.626 26.5731c-.908 1.6346-2.215 2.918-3.91 3.8381-1.707.9202-3.705 1.3803-6.006 1.3803h-8.16v-21.612h8.16c2.325 0 4.335.448 6.018 1.3439 1.695.896 2.99 2.1552 3.898 3.7897.908 1.6345 1.356 3.4991 1.356 5.63 0 2.1067-.46 3.9834-1.356 5.63Zm-5.63-1.0896c1.126-1.0776 1.695-2.6032 1.695-4.5525 0-1.9614-.569-3.4748-1.695-4.5524-1.126-1.0776-2.712-1.6224-4.758-1.6224h-2.47v12.3497h2.47c2.046 0 3.632-.5328 4.758-1.6224Z"/>
</svg>
