<svg xmlns="http://www.w3.org/2000/svg" width="146" height="45" fill="none">
  <path fill="#292F36" d="m21.2234 8.95747 1.0706-.22839c.2712 0 .4996.0571.6567.1713.157.11419.2426.22839.2426.32831 0 .09992-.0285.25694-.0713.44251-.0429.18557-.4426 2.0984-1.1848 5.7098-.7423 3.6115-1.2847 6.3094-1.6273 8.0794 1.6558-2.2554 3.5972-5.0246 5.8097-8.3221 2.2126-3.2974 3.5116-5.48137 3.8827-6.56624.1142-.34259.2712-.59953.4568-.7851.1855-.18557.3568-.29976.4996-.32831.1427-.02855.3711-.0571.6709-.0571.2998 0 .6566.07137 1.0706.19985.4139.12847.6281.34258.6281.65662 0 .57098-.8565 2.24108-2.5552 4.98178-1.6987 2.7407-3.6543 5.6527-5.8525 8.736-2.1983 3.0833-4.0255 5.5243-5.4957 7.3229-.257.314-.5853.4853-.9564.4853-.3712 0-.7709-.0713-1.1848-.1998-.414-.1285-.6281-.3569-.6281-.6995 0-1.0706.9421-6.2379 2.8263-15.4736-1.613 2.0841-3.5686 4.9961-5.8668 8.7218-2.3981 3.8541-3.75418 6.2522-4.06822 7.1658-.1713.5567-.37114.885-.59953.9707-.15702.0713-.32832.0999-.49962.0999l-1.15623.1284c-.22839 0-.42824-.0571-.62808-.1855-.18557-.1285-.28549-.257-.28549-.3997 0-.3854.54244-1.5559 1.61303-3.4973 1.07059-1.9413 2.34104-4.0539 3.78274-6.3379 1.4417-2.2839 2.9406-4.4964 4.5108-6.6519 1.5702-2.1554 2.7835-3.61145 3.64-4.33945.1713-.15702.3711-.2284.5995-.2284l.6994.09992ZM38.381 18.6358c.7423 0 1.1134.2569 1.1134.7565 0 .2712-.0571.4711-.1856.5995-.1284.1285-.3996.5425-.8136 1.2705-.4139.7137-.8707 1.6273-1.3704 2.755-.4996 1.1134-.8279 2.0698-.9706 2.8549-.0286.0999-.0428.2284-.0428.4139 0 .5425.1427.7994.4425.7994.2997 0 .6423-.1427 1.042-.414.3997-.2855.7566-.5709 1.0706-.8993.314-.314.6138-.6423.9136-.9706.2997-.3283.471-.5282.5281-.571.0571-.0428.1428-.0714.257-.0714.1855 0 .2997.1428.3426.4283.0428.2854.0571.5709.0571.885 0 .314-.0286.5139-.0857.6281-.2855.5567-.8993 1.2276-1.8699 2.0127-.9564.7851-1.8415 1.1705-2.6266 1.1705-.7851 0-1.3703-.2427-1.7272-.7138-.3568-.471-.5567-1.0134-.5567-1.5844 0-.5853.0999-1.0849.2998-1.5274-.8137 1.0563-1.7415 1.9413-2.7836 2.6836-1.0563.728-1.8985 1.0992-2.5694 1.0992-.6709 0-1.199-.1999-1.6273-.5996-.5424-.4996-.7994-1.1848-.7994-2.0698 0-.885.1999-1.77.5996-2.6693.3997-.885.9136-1.713 1.5559-2.441.6424-.7422 1.3561-1.4131 2.1269-2.0127 1.613-1.2704 3.1119-1.8985 4.4822-1.8985.5282 0 .9564.0857 1.2847.257.3283.1712.5425.3996.6281.6566.2284-.3569.4282-.571.5995-.6709.1285-.1142.3712-.157.6852-.157Zm-1.9413 1.6273c-1.6701 0-3.3974.9278-5.1817 2.7835-.6281.6709-1.2133 1.456-1.7557 2.3838-.5425.9279-.7994 1.556-.7994 1.8985 0 .3426.0999.5139.2998.5139.2712 0 1.0277-.5424 2.2839-1.613 1.2561-1.0706 2.0841-1.87 2.4837-2.3838.4568-.571 1.3418-1.7701 2.6694-3.5829Z"/>
  <path fill="#292F36" d="m49.4874 10.8988.5995.1427c.0857 0 .1713.0429.2284.1285.0714.0857.0999.1713.0999.2427 0 .0714-.0999.2855-.314.6281s-.4425.728-.728 1.1562c-.2855.4282-.4282.6709-.4425.7137.7565-.0571 1.299-.0856 1.613-.0856.314 0 .5282.0285.6566.0714.1142.0428.257.1713.3997.3711.157.1998.2855.3569.414.4568.1285.0999.1856.2569.1856.4568 0 .1998-.1285.3854-.3712.5138-.2427.1428-.5139.2284-.7994.257-2.2696.2284-3.5115.3426-3.7399.3569-.7851 1.2133-1.8985 3.0975-3.3117 5.6527-1.4132 2.5551-2.1697 4.1681-2.2554 4.8105-.0428.2998-.0571.5281-.0571.7137 0 .3854.1999.571.5996.571.3997 0 .8422-.157 1.3275-.4568.4853-.314.9421-.6423 1.3418-.9992 1.0991-.9707 1.6844-1.4703 1.7558-1.4703.2569 0 .3854.4425.3854 1.3133 0 .471-.2141.8993-.6566 1.2847-.985.8422-1.8129 1.4845-2.4838 1.9128-.6709.4282-1.3418.6423-2.027.6423-.1427 0-.2855-.0143-.4139-.0428-.7851-.1427-1.3561-.4282-1.713-.8565-.3711-.4282-.5424-.9992-.5424-1.7129 0-.7137.2141-1.5988.6423-2.6265.4283-1.0278.9564-2.1269 1.5988-3.2832 1.0563-1.8985 2.1126-3.6685 3.1547-5.3244l-.5568.0714c-1.1276.1285-1.7843.1856-1.9698.1856h-.1285c-.2855 0-.5567-.0571-.8137-.1713-.2569-.1142-.3997-.257-.3997-.414 0-.1713.0714-.3283.2142-.4853.1427-.157.2284-.2855.2569-.3712.0714-.2141.3283-.4567.7708-.7137.4425-.2569.7709-.3997.9993-.414.2284-.0142.4425-.0285.6566-.0428.2141-.0142.4425-.0143.6994-.0285.257-.0143.4568-.0143.5996-.0286l1.3132-.0571c.8137-1.2276 1.3847-2.027 1.6844-2.3695.3141-.3569.4854-.5425.5282-.571.0428-.0286.1427-.0571.2997-.0571l.6995-.0714Z"/>
  <path fill="#292F36" d="M58.2658 25.1592c.1856 0 .2997.1427.3426.4282.0428.2855.0571.571.0571.885 0 .3141-.0286.5139-.0857.6281-.2855.5424-.8993 1.2133-1.8557 1.9984-.9564.7851-1.8699 1.1848-2.7264 1.1848-.5282 0-1.0135-.157-1.4703-.471-.4425-.3141-.6709-.8708-.6709-1.6559 0-.7851.2141-1.5702.6281-2.3267-2.4267 3.0405-4.3109 4.5536-5.6955 4.5536-.5425 0-.985-.1999-1.3276-.5853-.3426-.3854-.4996-.7851-.4996-1.2133 0-.414.0571-.8422.1713-1.2847.1142-.4426.2427-.8422.3712-1.1991.1284-.3569.3283-.7851.5852-1.299.2569-.5139.4568-.885.571-1.1277.1142-.2426.3283-.5852.6138-1.0563.2855-.4711.6423-1.1134 1.0991-1.9128.4568-.7994.8279-1.3989 1.1277-1.7843.2998-.3854.5853-.5853.8708-.5853.2854 0 .5281.1142.7422.3426.2142.2284.3283.4283.3283.571 0 .1428-.3283.7994-.9849 1.9699-1.927 3.4973-2.8977 5.5242-2.8977 6.1095 0 .1427.0571.2141.157.2141.471 0 1.6416-1.0135 3.4973-3.0405 1.8557-2.0269 2.9405-3.3259 3.2403-3.8969.2997-.571.571-1.0563.8565-1.4417.2712-.3854.4853-.6281.628-.7138.414-.2712.9564-.4139 1.6273-.4425.1142 0 .1856 0 .2427.0143.0571.0143.1285.0999.1998.2427.0714.1427.1142.2712.1142.3711-.0856.2712-.471.9992-1.1705 2.184-.6852 1.1848-1.0706 1.8557-1.1419 1.9984-1.1563 2.3839-1.7273 3.9398-1.7273 4.6535 0 .414.1571.6139.4711.6139.571-.0714 1.2562-.5282 2.0555-1.3561.2998-.2998.5853-.6138.8708-.9279.2855-.314.471-.4996.5281-.5424.0714-.0714.1571-.0999.257-.0999Z"/>
  <path fill="#292F36" d="M62.5049 21.7761c2.2982-2.6122 4.2681-3.9255 5.8811-3.9255.3997 0 .7281.1142.985.3569s.3854.5424.3854.9278c0 .3854-.2712 1.0135-.8136 1.9128-.5425.885-1.0421 1.6416-1.4989 2.2554-.2426.314-.5139.4711-.8279.4711-.2998 0-.5424-.1142-.7137-.3426-.1713-.2284-.257-.4854-.257-.7851 0-.6709.3569-1.4418 1.0849-2.284l-.0286-.0285c-.3283.0285-1.1134.6709-2.3981 1.8985-1.2704 1.2419-2.3553 2.3553-3.2546 3.326-.885.9849-1.8557 2.1697-2.912 3.5829-.2997.4139-.5567.6281-.7708.6281-.2141 0-.4853-.0714-.8279-.1999-.3426-.1285-.5567-.2284-.6281-.2855-.0714-.0571-.1142-.157-.1142-.2997 0-.1285.0428-.2998.1142-.4711.0714-.1856.2284-.4425.4282-.7708.1999-.3283.5282-.8708.9564-1.613.4283-.7423 1.0849-1.87 1.9842-3.3688.8993-1.4989 1.4274-2.4124 1.613-2.7265.3712-.6423.6709-1.1134.9136-1.3989.4425-.5567 1.1848-.8279 2.2268-.8279.2284 0 .3569.1427.3569.4425 0 .4568-.4283 1.3275-1.2705 2.5837l-.6138.9421ZM78.2503 18.807c0 .6423-.2569 1.2133-.7851 1.6986-.5281.4854-1.1134.728-1.7843.728-.2141 0-.3569-.0571-.4282-.157-.0714-.0999-.1-.2427-.1-.3997s.0143-.3283.0571-.4853c-.3568.1142-.7423.2998-1.1705.5424-.4282.2427-.9564.5996-1.5845 1.0849-.628.4853-.9421.8279-.9421 1.0706 0 .0714.1142.1142.3426.1142.2284 0 .5853-.0857 1.0563-.2427.4711-.157.8137-.2427.9992-.2427.1856 0 .3141.0143.3712.0286.1284.0714.2569.2141.4139.4425.1428.2284.2142.414.2142.5424 0 .1285-.1285.2998-.3854.5139-.257.2141-.5425.3712-.8565.4853-.3283.1142-.5424.1999-.6424.257-2.0555 1.1562-3.0833 1.9413-3.0833 2.3696 0 .7565.6424 1.1419 1.9414 1.1419.8279 0 1.6701-.2569 2.498-.7851.7137-.4425 1.3561-.8993 1.9271-1.3703.571-.4568.9278-.7423 1.0848-.8565.1571-.1142.2713-.157.3426-.157.257 0 .3854.2855.3854.8565 0 .5709-.0285.9421-.0999 1.1134-.0714.1855-.2569.3997-.5852.6709-2.0841 1.6986-4.0683 2.5551-5.924 2.5551-.9992 0-1.7843-.1427-2.3838-.414-1.0992-.4996-1.6416-1.2561-1.6416-2.2839 0-1.3418.9279-2.3696 2.7978-3.0547-.3711-.1713-.6138-.3712-.7137-.6424-.1142-.2569-.157-.6709-.157-1.2419s.2712-1.1705.7993-1.8128c.5282-.6424 1.1848-1.1705 1.9557-1.5702 1.7129-.9279 3.2545-1.3847 4.5964-1.3847.3283 0 .6423.0714.9849.2284.3426.157.4996.3712.4996.6567ZM111.567 8.87192h.185c.057 0 .1 0 .115.01427.014.01427.028.01428.057.02855.028 0 .042.01427.071.04282.043.04283.114.08565.2.12847.114.08565.171.18557.171.29977 0 .1142-.114.35686-.342.728-.229.3711-.814 1.2704-1.77 2.7264-2.184 3.3403-4.14 6.4521-5.867 9.307-2.984 4.9676-4.4968 7.4656-4.5253 7.4942-.0286.0285-.0429.0571-.0571.0856-.0143.0571-.0429.0857-.1142.0857l-.1999-.0429-.3997.1-.2284-.0429-.2426.0429h-.0857l-.8136.1142c-.4853 0-.728-.1713-.728-.4997 0-.1427.0428-.314.1285-.5138.2997-.7138 1.8271-3.2975 4.568-7.7797-1.7988.0429-3.5831.0714-5.3389.0714l-3.1404-.0143c-.5138.828-1.2276 1.9985-2.1269 3.5258-1.9413 3.326-2.9691 4.9961-3.0975 5.0247-.1285.0285-.2284.0571-.3141.0571-.0856 0-.157-.0428-.2141-.1428-.0714-.0856-.1142-.1427-.1427-.1427-.0286 0-.0714.0143-.1571.0571-.0713.0428-.1855.0571-.3425.0571l-.3426-.0143-.1285-.0856c-.0143 0-.0285.0142-.0428.0428-.0143.0285-.0571.0428-.1142.0428-.414 0-.6281-.1713-.6281-.5281 0-.2284.0856-.5425.2427-.9279.1713-.3854.3854-.7994.6566-1.2419.2712-.4425.9564-1.5131 2.0841-3.1832 1.1134-1.6701 1.6701-2.5123 1.6701-2.5266-.1856-.0143-.3997-.0143-.6424-.0285-.4996 0-.8422-.0143-1.0563-.0571-.5567-.1-.9421-.5567-1.1419-1.3704-.1142-.3997-.1571-.6566-.1428-.7851 0-.2569.1142-.3997.3426-.3997l.3854.0999c.1998.0143.6566.0286 1.3989.0714.7423.0428 1.2705.0571 1.5988.0571l.8279-.0285c1.2704-1.9842 2.7835-4.2396 4.5536-6.7519-1.2847 1.0563-2.7122 1.5845-4.2824 1.5845-.7423 0-1.3846-.1713-1.9128-.5282-.5424-.3568-.7994-.8136-.7994-1.3561 0-.5424.1999-.9706.6139-1.2989.4139-.3141.7993-.4711 1.1705-.4711.3711 0 .5567.0571.5567.1713 0 .0428-.0571.0856-.1571.1285-.0999.0571-.157.0999-.157.1427 0 .157.1713.2998.5139.414.3426.1142.728.1855 1.1562.1855.4283 0 .9422-.1284 1.5702-.3711.6281-.2427 1.2705-.571 1.9414-.95639.9421-.54243 1.6844-.99922 2.2268-1.35608.314-.15702.5996-.22839.885-.22839.2855 0 .4712.02855.5992.09992.129.0571.214.12847.272.18557.057.0571.128.14275.185.24267.072.09992.129.18557.2.22839.057.0571.1.1142.1.18557 0 .07137-.043.17129-.114.32831-.072.14275-.443.74223-1.1137 1.78433-.6709 1.042-1.5417 2.3696-2.598 3.9826-1.0563 1.613-1.8271 2.7978-2.3124 3.5686 2.6122 0 5.4241-.0428 8.4501-.1427 3.683-5.8098 5.625-8.85024 5.824-9.13573.2-.28549.386-.47106.557-.55671.171-.08564.371-.12847.614-.12847l1.242.09993ZM116.335 18.6071c.3 0 .6.1285.899.3997.314.2712.457.6709.457 1.2134 0 .5424-.185 1.2418-.571 2.1126-.385.8565-.899 1.7415-1.57 2.6408-.657.885-1.399 1.7272-2.184 2.5123-.799.7851-1.656 1.4274-2.57 1.9271-.927.4996-1.755.7565-2.512.7565-.756 0-1.356-.2427-1.813-.7137-.456-.4711-.685-1.1277-.685-1.9699 0-.8422.214-1.7843.628-2.7978.414-1.0278.942-1.9271 1.599-2.7122.657-.7851 1.356-1.4845 2.127-2.1126 1.584-1.2847 2.983-1.9128 4.182-1.9128.543 0 .942.1285 1.214.3997.1.0856.142.1713.142.2284v.0856c.157-.0571.372-.0571.657-.0571Zm-1.47 1.9414h-.1c-.343 0-.514-.2427-.514-.7423-.714.2284-1.456.6423-2.241 1.2276-.785.5853-1.485 1.2847-2.099 2.0841-1.256 1.5987-1.884 2.9548-1.898 4.054 0 .5424.2.8136.599.8136.4 0 1-.2712 1.785-.7851.785-.5139 1.57-1.2704 2.355-2.2554.771-.9706 1.356-1.8271 1.742-2.5408.385-.7138.585-1.1991.585-1.4703-.014-.257-.086-.3854-.214-.3854ZM117.376 29.8412l-.713-.0286h-.257c-.1-.0285-.2-.0856-.314-.1713-.115-.0856-.2-.157-.257-.1856-.057-.0285-.086-.1142-.086-.2141 0-.0999.043-.2855.114-.5281 1.899-4.1825 3.74-7.537 5.524-10.035.2-.2712.514-.4854.943-.6281.428-.1428.856-.2141 1.27-.2141.243 0 .371.1855.371.571 0 .1141-.043.2569-.114.4282-.071.1856-.271.471-.585.885-.314.414-.685.885-1.114 1.3989-.428.5139-.671.8279-.728.9136 1.342-1.3846 2.541-2.4124 3.626-3.0976 1.085-.6709 1.856-1.0135 2.341-1.0135.485 0 .857.1428 1.113.414.257.2712.386.571.386.885 0 .314-.029.5853-.071.7851-.043.2141-.129.4282-.243.6566-.114.2284-.214.4283-.3.5853-.086.157-.228.3711-.414.6281-.2.2569-.328.4425-.4.5424-.071.0999-.228.2855-.456.5567-.229.2712-.357.4282-.371.4568.271-.2712.656-.6709 1.141-1.2133.486-.5425.9-.985 1.242-1.3418.343-.3569.757-.7709 1.271-1.2277.514-.4567.985-.8279 1.413-1.0991 1.056-.6566 2.127-.9992 3.212-.9992.371 0 .685.1142.942.3568.257.2427.385.5139.385.8422 0 .3284-.399 1.1135-1.185 2.3411-.785 1.2276-1.584 2.4695-2.369 3.7113-.785 1.2419-1.185 2.027-1.185 2.3553 0 .4426.086.7138.243.7994.171.0857.371.1142.599.0999.229-.0142.571-.1713.985-.4567.428-.2855.8-.571 1.128-.8851.542-.4853 1.028-.9564 1.499-1.4131.1-.0857.2-.1285.328-.1285.186 0 .3.1427.343.4282.042.2855.057.571.057.885 0 .3141-.029.5139-.086.6281-.285.5425-.913 1.2134-1.87 2.0127-.971.7851-1.898 1.1848-2.783 1.1848-.115 0-.186 0-.229-.0143-.999-.0999-1.698-.3711-2.084-.8279-.385-.4568-.571-.9992-.571-1.613s.214-1.3846.643-2.2697c.428-.885.885-1.6986 1.398-2.4124.514-.7137.971-1.3703 1.399-1.9556.429-.5852.643-.8993.643-.9421 0-.0428-.043-.0714-.115-.0714-.299 0-.97.4854-2.026 1.4703-1.785 1.6701-3.326 3.2832-4.625 4.8248-.343.414-1.157 1.4417-2.427 3.1119-.143.1998-.386.2997-.7.2997-.314 0-.642-.0571-.985-.1855-.342-.1285-.513-.2855-.513-.4711 0-.0999.77-1.4703 2.326-4.1111 1.556-2.6408 2.327-4.0825 2.327-4.3109 0-.2426-.143-.3568-.428-.3568-.286 0-.885.4282-1.784 1.2847-2.47 2.3553-4.383 4.7106-5.739 7.0373-.085.1428-.257.3569-.514.6424s-.485.3997-.571.3997Z"/>
  <path fill="#292F36" d="M145.683 18.807c0 .6423-.257 1.2133-.785 1.6986-.528.4854-1.114.728-1.785.728-.214 0-.356-.0571-.428-.157-.071-.0999-.1-.2427-.1-.3997s.015-.3283.057-.4853c-.356.1142-.742.2998-1.17.5424-.428.2427-.956.5996-1.585 1.0849-.628.4853-.942.8279-.942 1.0706 0 .0714.115.1142.343.1142.228 0 .585-.0857 1.056-.2427.471-.157.814-.2427.999-.2427.186 0 .314.0143.372.0286.128.0714.257.2141.414.4425.142.2284.214.414.214.5424 0 .1285-.129.2998-.386.5139s-.542.3712-.856.4853c-.329.1142-.543.1999-.643.257-2.055 1.1562-3.083 1.9413-3.083 2.3696 0 .7565.642 1.1419 1.941 1.1419.828 0 1.671-.2569 2.499-.7851.713-.4425 1.356-.8993 1.927-1.3703.571-.4568.927-.7423 1.084-.8565.157-.1142.272-.157.343-.157.257 0 .385.2855.385.8565 0 .5709-.028.9421-.099 1.1134-.072.1855-.257.3997-.586.6709-2.084 1.6986-4.068 2.5551-5.924 2.5551-.999 0-1.784-.1427-2.384-.414-1.099-.4996-1.641-1.2561-1.641-2.2839 0-1.3418.928-2.3696 2.798-3.0547-.371-.1713-.614-.3712-.714-.6424-.114-.2569-.157-.6709-.157-1.2419s.271-1.1705.799-1.8128c.528-.6424 1.185-1.1705 1.956-1.5702 1.713-.9279 3.255-1.3847 4.596-1.3847.329 0 .643.0714.985.2284.343.157.5.3712.5.6567ZM.982422 33.7952C4.73662 35.3654 8.56219 36.5787 12.4591 37.5066c3.8684.9706 7.8082 1.6558 11.748 2.084 1.9699.2712 3.954.2998 5.9097.4854 1.9841.0142 3.954.1713 5.9239.0571l2.9548-.0714c.985-.0143 1.9699-.1427 2.9548-.1998.985-.0857 1.9699-.1285 2.9406-.257l2.9263-.414c3.9255-.4282 7.7368-1.3418 11.5338-2.4409 3.8398-1.0563 7.4656-2.4552 11.3054-3.9112 3.9255-1.4418 8.1793-2.3839 12.4902-1.9271 2.127.2712 4.2681.9564 6.0096 2.2126 1.7558 1.2419 3.012 3.0119 3.8113 4.8676-1.199-1.6559-2.6979-3.0119-4.4251-3.8541-1.7272-.8422-3.6257-1.1848-5.51-1.1277-3.8113.0571-7.5655 1.3275-11.0913 2.9263-3.5829 1.77-7.4656 3.3687-11.3768 4.6963-3.9398 1.2704-8.008 2.2839-12.1333 2.7978-8.2079 1.0849-16.6156 1.0991-24.7235-.5424-4.0683-.7423-8.0366-1.8986-11.8764-3.3688-3.81135-1.5274-7.53699-3.3117-10.848678-5.7241ZM137.49 10.0281c-3.183-1.35606-6.423-2.41238-9.707-3.2403-3.268-.87075-6.58-1.48455-9.906-1.91278-1.656-.25695-3.34-.31404-4.996-.51389-1.67-.04282-3.326-.21412-4.996-.14274-.828.01427-1.67.01427-2.498 0-.828 0-1.67.08564-2.498.11419-.828.0571-1.67.07138-2.498.15702l-2.4842.29977c-3.3259.27121-6.552.95639-9.778 1.79859-3.2689.7851-6.3665 1.89851-9.6639 3.01193-3.383 1.12771-7.0516 1.81291-10.7344 1.29901-1.8129-.2998-3.64-.94215-5.0818-2.08411-1.4702-1.12769-2.4695-2.66934-3.0833-4.28237 1.0135 1.41318 2.2697 2.56942 3.7114 3.28315s3.0262 1.01349 4.6107.99922c3.1975 0 6.3664-1.02777 9.3641-2.31248 3.0547-1.456 6.4092-2.74071 9.7495-3.79702C90.3699 1.69179 93.8814.920968 97.3929.549831c7.0091-.742276 14.1751-.5709822 21.0411 1.056319 3.44.728 6.794 1.84141 10.006 3.21177 3.226 1.3989 6.338 3.0262 9.05 5.21018Z"/>
</svg>
