<svg xmlns="http://www.w3.org/2000/svg" width="118" height="48" fill="none">
  <path fill="#292F36" d="M.683594 29.7841V.57843H17.8844V29.7699H.683594v.0142ZM15.8004 22.9894l.4425-3.226-1.5988-.157-.4853 2.4838c-.9993.4996-2.2269.7422-3.6971.7422-1.99848 0-3.58296-.628-4.7392-1.8985-1.17051-1.2704-1.74149-2.9405-1.74149-5.0246 0-2.027.57098-3.6971 1.69867-5.0104 1.12769-1.31324 2.61228-1.96987 4.45372-1.96987.9421 0 1.7414.1142 2.3838.32832.6424.21412 1.2276.49961 1.7843.87075l.4711 2.4552 1.6273-.157-.4711-3.22605C15.2437 8.615 14.43 8.14394 13.4879 7.7728c-.9422-.35687-2.1127-.54244-3.49728-.54244-1.64157 0-3.05475.39969-4.23954 1.21334-1.18479.81365-2.11263 1.8842-2.76926 3.2118-.65663 1.3418-.98495 2.7835-.98495 4.3252 0 2.4409.75655 4.4822 2.26965 6.1095 1.5131 1.6273 3.48297 2.4409 5.92388 2.4409 2.3982 0 4.2682-.5139 5.61-1.5417ZM23.7227 29.7841V.57843h7.3942V29.7699h-7.3942v.0142Zm.785-5.5099h5.8383v-1.4703h-2.0127V6.50236h-3.8541v1.47028h2.0413V22.8039h-2.0128v1.4703ZM36.9551 29.7841V.57843h12.9898V29.7699H36.9551v.0142Zm2.3553-16.1302-.414 2.6551 1.4988.1855.4426-1.9841c.6423-.3141 1.3703-.4711 2.2268-.4711 1.0277 0 1.7272.257 2.0841.7708.3569.5139.5281 1.1848.5281 2.0128v1.0277c-.314-.0285-.6423-.0571-.9992-.0714-.3569-.0142-.6994-.0285-1.042-.0285-1.2847 0-2.5124.2284-3.6543.6852-1.142.4568-1.7129 1.4132-1.7129 2.8549 0 1.2276.3854 2.0698 1.1705 2.5266.7851.471 1.5559.6994 2.3124.6994.9279 0 1.7272-.2426 2.3839-.728.6566-.4853 1.1705-1.0277 1.5416-1.6558v.0571c.0286 1.5559.728 2.3267 2.0984 2.3267.5282 0 1.0277-.1284 1.4988-.3854l-.0285-1.1848c-.2284.0999-.4854.157-.7709.157-.6566 0-.9849-.4139-.9849-1.2418v-5.4672c0-2.5694-1.3704-3.8541-4.1111-3.8541-.7565 0-1.4703.0856-2.1412.2569-.6851.1856-1.3275.4711-1.927.8565Zm6.3522 6.3093c-.0714.9422-.4568 1.6987-1.1563 2.2411-.6994.5568-1.4417.828-2.2411.828-.4996 0-.9849-.1428-1.4417-.414-.4711-.2712-.6995-.7851-.6995-1.5274 0-.8993.3569-1.4702 1.0421-1.7415.6994-.2712 1.4702-.3996 2.341-.3996.3854 0 .7565.0142 1.1134.0571.3569.0285.7137.0571 1.0278.0713v.885h.0143ZM55.7979 29.7841V.57843h11.805V29.7699h-11.805v.0142Zm10.5631-8.8359c0-.9136-.2427-1.5845-.728-2.027-.4854-.4425-1.0706-.7423-1.7843-.9136-.7138-.1713-1.4132-.314-2.1126-.4282-.6995-.1142-1.299-.2998-1.7844-.5424-.4853-.2427-.728-.6709-.728-1.2847 0-.5853.2284-1.0135.6995-1.299.471-.2855 1.0563-.414 1.7843-.414.8422 0 1.6273.1856 2.3553.571l.2855 1.8557 1.4988-.1856-.2855-2.6836c-.4853-.2998-1.0705-.5424-1.77-.7423-.6995-.1998-1.4417-.314-2.2411-.314-1.0563 0-2.027.2569-2.9263.7565-.8993.4996-1.3418 1.3561-1.3418 2.5837 0 .8993.2427 1.556.728 1.9699.4853.4283 1.0849.7137 1.8129.885s1.4417.3141 2.1554.4426c.7137.1141 1.3133.314 1.7986.5709.4853.257.728.6995.728 1.3418 0 .6567-.3141 1.142-.9421 1.456-.6281.3141-1.3418.4711-2.1555.4711-.9135 0-1.77-.1856-2.5551-.571l.0714-1.5274-1.4418-.157-.3568 2.6123c.4996.3283 1.1562.5995 1.9556.8136.7994.2141 1.5987.3283 2.4124.3283 1.3846 0 2.5409-.314 3.4687-.9564.9279-.6138 1.3989-1.4988 1.3989-2.6122ZM73.4414 29.7841V.57843h11.805V29.7699h-11.805v.0142Zm10.5631-8.8359c0-.9136-.2427-1.5845-.728-2.027-.4853-.4425-1.0706-.7423-1.7843-.9136s-1.4132-.314-2.1126-.4282c-.6995-.1142-1.299-.2998-1.7843-.5424-.4854-.2427-.7281-.6709-.7281-1.2847 0-.5853.2284-1.0135.6995-1.299.471-.2855 1.0563-.414 1.7843-.414.8422 0 1.6273.1856 2.3553.571l.2855 1.8557 1.4988-.1856-.2855-2.6836c-.4853-.2998-1.0705-.5424-1.77-.7423-.6994-.1998-1.4417-.314-2.2411-.314-1.0563 0-2.027.2569-2.9263.7565-.8993.4996-1.3418 1.3561-1.3418 2.5837 0 .8993.2427 1.556.728 1.9699.4854.4283 1.0849.7137 1.8129.885s1.4417.3141 2.1554.4426c.7137.1141 1.3133.314 1.7986.5709.4854.257.728.6995.728 1.3418 0 .6567-.314 1.142-.942 1.456-.6281.3141-1.3419.4711-2.1555.4711-.9136 0-1.7701-.1856-2.5552-.571l.0714-1.5274-1.4417-.157-.3569 2.6123c.4996.3283 1.1563.5995 1.9556.8136.7994.2141 1.5988.3283 2.4124.3283 1.3847 0 2.5409-.314 3.4687-.9564.9279-.6138 1.3989-1.4988 1.3989-2.6122ZM91.084 29.7841V.57843h7.7796V29.7699H91.084v.0142Zm1.1419-5.5099h5.8384v-1.4703h-2.0128V12.7832h-3.8683v1.4702h2.0697v8.5505h-2.0127v1.4703h-.0143Zm1.8272-16.81544v2.3553h1.9699v-2.3553h-1.9699ZM104.702 29.7841V.57843h12.433V29.7699h-12.433v.0142Zm11.32-9.3783-1.556-.3426c-.343 1.9413-1.385 2.912-3.098 2.912-1.142 0-2.012-.3854-2.612-1.1563-.599-.7708-.899-1.8557-.899-3.226 0-1.2419.271-2.2982.799-3.1832.528-.885 1.413-1.3133 2.641-1.3133.942 0 1.77.2141 2.455.6424l.443 1.9413 1.499-.1856-.443-2.7692c-.585-.4425-1.199-.7566-1.841-.9279-.643-.1713-1.342-.2569-2.099-.2569-1.784 0-3.14.6281-4.025 1.8842-.899 1.2562-1.342 2.6836-1.342 4.2681 0 1.8414.471 3.2832 1.427 4.2966.943 1.0278 2.213 1.5417 3.798 1.5417 1.584 0 2.755-.4425 3.497-1.3133.742-.885 1.199-1.8128 1.356-2.812ZM8.12067 45.7287c-.32831.5995-.81366 1.0706-1.44174 1.3989-.64235.3283-1.39891.4996-2.28393.4996H1.83984v-8.0508H4.395c.88502 0 1.65585.157 2.28393.4853.62808.3283 1.11343.7851 1.44174 1.3989.32832.6138.48533 1.3133.48533 2.1412 0 .8137-.15701 1.5274-.48533 2.1269Zm-1.4132.157c.5567-.5424.82794-1.299.82794-2.2839 0-.9849-.27124-1.7415-.82794-2.2839-.55671-.5425-1.35609-.8137-2.4124-.8137h-1.4417v6.1952h1.4417c1.05631 0 1.85569-.2712 2.4124-.8137ZM13.9014 40.4186v2.755h3.0548v.7993h-3.0548v2.8121h3.3974v.8422h-4.4394v-8.0508h4.4394v.8422h-3.3974ZM26.321 46.5996c-.1856.3283-.4568.5995-.828.7993-.3711.1999-.8279.3141-1.3846.3141-.5281 0-1.0135-.0999-1.4274-.2855-.414-.1999-.7423-.4568-.9992-.7994-.2427-.3426-.3855-.728-.4283-1.1562h1.1134c.0286.2284.0999.4568.2284.6709.1285.2141.3283.3997.571.5424.2427.1428.5424.2141.8993.2141.4568 0 .8137-.1142 1.0563-.3711.2427-.257.3711-.5567.3711-.9421 0-.3283-.0856-.5996-.2569-.7994-.1713-.1998-.3854-.3711-.6281-.4853-.2426-.1142-.5995-.2427-1.0277-.3854-.5139-.1713-.9136-.3284-1.2276-.4711-.3141-.1428-.571-.3711-.7852-.6709-.2141-.2998-.3282-.6852-.3282-1.1705 0-.414.0999-.7851.2997-1.1134.1999-.3141.4853-.571.8707-.7423.3712-.1713.828-.257 1.3276-.257.7851 0 1.4274.1856 1.8842.571.4711.3854.728.8708.8137 1.4703h-1.1134c-.0571-.314-.2284-.5995-.4854-.8422-.2712-.2427-.6281-.3711-1.0849-.3711-.4139 0-.7565.1142-.9991.3283-.257.2141-.3712.5281-.3712.9136 0 .314.0857.5709.2427.7565.1713.1998.3711.3426.6138.4568.2427.1142.5852.2284.9992.3711.5139.1713.9278.3283 1.2561.4854.3141.157.5853.3854.7994.6851.2141.2998.3283.7138.3283 1.2277-.0285.3711-.1141.7279-.2997 1.0563ZM31.8878 39.5764v8.0508h-1.0421v-8.0508h1.0421ZM42.4223 40.1903c.6423.4711 1.0706 1.0991 1.2847 1.8985h-1.0991c-.1856-.4853-.5139-.885-.9565-1.1705-.4425-.2998-.9706-.4425-1.5844-.4425-.5424 0-1.0421.1285-1.4703.3854-.4283.2569-.7708.6138-1.0277 1.0849-.2427.471-.3712 1.0277-.3712 1.6701 0 .6566.1285 1.2276.3712 1.6987.2426.471.5995.8422 1.042 1.0991s.9564.3854 1.5416.3854c.4996 0 .9421-.1142 1.3561-.314.414-.2142.7423-.5282 1.0135-.9279.2712-.3997.414-.885.4711-1.4274h-3.169v-.7709h4.0397v.9564c-.0714.6424-.2712 1.2134-.5995 1.7415-.3283.5282-.7708.9279-1.3275 1.2276-.5568.2998-1.1849.4568-1.8986.4568-.7708 0-1.456-.1713-2.0555-.5139-.5995-.3425-1.0563-.8279-1.3846-1.456-.3284-.6138-.4997-1.3275-.4997-2.1269 0-.7993.1713-1.5131.4997-2.1269.3283-.6138.7993-1.1134 1.3846-1.456.5852-.3426 1.2704-.5281 2.0412-.5281.9707-.0286 1.7558.1998 2.3982.6566ZM54.3983 47.6272h-1.042l-4.1825-6.3664v6.3664h-1.042v-8.0508h1.042l4.1825 6.3664v-6.3664h1.042v8.0508ZM69.4157 46.5996c-.1856.3283-.4568.5995-.8279.7993-.3712.1999-.8279.3141-1.3846.3141-.5282 0-1.0135-.0999-1.4275-.2855-.4139-.1999-.7423-.4568-.9992-.7994-.2427-.3426-.3854-.728-.4282-1.1562h1.1133c.0286.2284.1.4568.2285.6709.1285.2141.3282.3997.5709.5424.2427.1428.5425.2141.8993.2141.4568 0 .8136-.1142 1.0563-.3711.2427-.257.3712-.5567.3712-.9421 0-.3283-.0857-.5996-.257-.7994-.1713-.1998-.3854-.3711-.628-.4853-.2427-.1142-.5995-.2427-1.0278-.3854-.5139-.1713-.9136-.3284-1.2276-.4711-.3141-.1428-.571-.3711-.7851-.6709-.2141-.2998-.3283-.6852-.3283-1.1705 0-.414.0999-.7851.2997-1.1134.1998-.3141.4854-.571.8708-.7423.3711-.1713.8279-.257 1.3275-.257.7851 0 1.4275.1856 1.8843.571.471.3854.728.8708.8136 1.4703h-1.1134c-.0571-.314-.2285-.5995-.4854-.8422-.2712-.2427-.628-.3711-1.0848-.3711-.4139 0-.7566.1142-.9992.3283-.257.2141-.3712.5281-.3712.9136 0 .314.0857.5709.2427.7565.1713.1998.3711.3426.6138.4568.2426.1142.5852.2284.9992.3711.5139.1713.9279.3283 1.2562.4854.314.157.5852.3854.7993.6851.2142.2998.3283.7138.3283 1.2277-.0285.3711-.1141.7279-.2997 1.0563ZM78.8799 39.5764v.8422h-2.2697v7.2086h-1.0563v-7.2086h-2.2697v-.8422h5.5957ZM83.7332 39.5764v4.8248c0 .7851.1713 1.3703.5281 1.7557.3569.3712.828.571 1.456.571.6138 0 1.0849-.1855 1.4275-.571.3426-.3854.5139-.9563.5139-1.7414v-4.8248h1.0421v4.8248c0 1.0991-.2713 1.927-.8137 2.4694-.5424.5568-1.2705.828-2.184.828-.8993 0-1.6273-.2712-2.1697-.828-.5424-.5567-.8137-1.3703-.8137-2.4694v-4.8248h1.0135v-.0143ZM99.4487 45.7287c-.3283.5995-.8137 1.0706-1.4417 1.3989-.6424.3283-1.3989.4996-2.2839.4996H93.168v-8.0508h2.5551c.885 0 1.6558.157 2.2839.4853.628.3283 1.1134.7851 1.4417 1.3989.3283.6138.4854 1.3133.4854 2.1412 0 .8137-.1571 1.5274-.4854 2.1269Zm-1.3989.157c.5567-.5424.828-1.299.828-2.2839 0-.9849-.2713-1.7415-.828-2.2839-.5567-.5425-1.356-.8137-2.4124-.8137h-1.4417v6.1952h1.4417c1.0421 0 1.8557-.2712 2.4124-.8137ZM105.244 39.5764v8.0508h-1.042v-8.0508h1.042ZM115.465 40.0047c.6.3569 1.071.8422 1.414 1.4703.342.6281.513 1.3418.513 2.1269 0 .7851-.171 1.4988-.513 2.1269-.343.6281-.814 1.1134-1.414 1.4703-.599.3569-1.27.5281-2.012.5281-.743 0-1.428-.1712-2.027-.5281-.6-.3569-1.085-.8422-1.428-1.4703-.342-.6281-.514-1.3418-.514-2.1269 0-.7851.172-1.4988.514-2.1269.343-.6281.814-1.1134 1.428-1.4703.613-.3568 1.284-.5281 2.027-.5281.742 0 1.413.1713 2.012.5281Zm-3.511.8279c-.443.257-.785.6138-1.028 1.0992-.243.471-.371 1.0277-.371 1.6701 0 .6281.128 1.1848.371 1.6701.243.4854.585.8422 1.028 1.0992.442.2569.928.3854 1.484.3854.543 0 1.042-.1285 1.485-.3854.442-.257.785-.6281 1.028-1.0992.242-.471.371-1.0277.371-1.6558 0-.6424-.129-1.1991-.371-1.6701-.243-.4711-.586-.8422-1.028-1.0992-.443-.2569-.928-.3854-1.485-.3854-.542-.0143-1.042.1142-1.484.3711Z"/>
</svg>
