<svg xmlns="http://www.w3.org/2000/svg" fill="none">
  <path fill="#292F36" d="M44.88 39v-.4l.8-.32c.5333-.1867.88-.44 1.04-.76.1867-.32.28-.7467.28-1.28V15.36c0-.5333-.08-.96-.24-1.28-.16-.32-.52-.5733-1.08-.76l-.8-.32v-.4h10.28v.4l-.8.32c-.5333.1867-.8933.44-1.08.76-.16.32-.24.7467-.24 1.28v20.88c0 .5333.08.96.24 1.28.1867.2933.5467.5467 1.08.76l.8.32v.4H44.88Zm11.9513 0v-.4l.56-.16c.9333-.2667 1.4-.92 1.4-1.96V23.96c0-.5867-.0934-1.0133-.28-1.28-.1867-.2933-.5467-.4933-1.08-.6l-.6-.16v-.4l6.84-2.32.4.4.32 2.4c.9333-.8267 1.9866-1.5067 3.16-2.04 1.1733-.5333 2.3333-.8 3.48-.8 1.76 0 3.1066.48 4.04 1.44.96.96 1.44 2.4267 1.44 4.4v11.52c0 1.04.5066 1.6933 1.52 1.96l.36.12v.4h-9.44v-.4l.52-.16c.9333-.2933 1.4-.9467 1.4-1.96V23.72c0-1.7067-.8534-2.56-2.56-2.56-1.1734 0-2.4534.5867-3.84 1.76v13.6c0 1.04.4666 1.6933 1.4 1.96l.36.12v.4h-9.4Zm30.5296.6c-1.7066 0-3.04-.4267-4-1.28-.9333-.8533-1.4-2.2133-1.4-4.08V20.56h-2.76v-.4l.96-.16c.8267-.1867 1.5334-.4533 2.12-.8.6134-.3467 1.2134-.8133 1.8-1.4l3.28-3.64h.4l-.12 5.6h4.48v.8h-4.52v14.4c0 .9333.2 1.64.6 2.12.4267.48.96.72 1.6.72.56 0 1.0534-.1333 1.48-.4.4267-.2933.8534-.68 1.28-1.16l.4.4c-.5333.9067-1.2666 1.6267-2.2 2.16-.9333.5333-2.0666.8-3.4.8Zm16.7761-20.44c1.733 0 3.213.36 4.44 1.08 1.227.6933 2.16 1.6533 2.8 2.88.667 1.2 1 2.5733 1 4.12 0 .2933-.013.6-.04.92-.027.2933-.08.56-.16.8h-11.92c.027 2.88.533 4.96 1.52 6.24 1.013 1.2533 2.507 1.88 4.48 1.88 1.333 0 2.413-.2133 3.24-.64.827-.4267 1.6-1.0533 2.32-1.88l.4.36c-.827 1.4667-1.933 2.6133-3.32 3.44-1.36.8267-3 1.24-4.92 1.24-1.893 0-3.573-.4-5.0401-1.2-1.4667-.8267-2.6134-2-3.44-3.52-.8267-1.52-1.24-3.3333-1.24-5.44 0-2.1867.48-4.04 1.44-5.56.96-1.5467 2.1866-2.72 3.68-3.52 1.5201-.8 3.1071-1.2 4.7601-1.2Zm-.12.8c-.773 0-1.44.24-2 .72-.533.4533-.96 1.28-1.28 2.48-.293 1.1733-.453 2.84-.48 5h6.84c.267-2.9067.16-5-.32-6.28-.48-1.28-1.4-1.92-2.76-1.92ZM114.37 39v-.4l.6-.16c.534-.16.894-.4 1.08-.72.214-.32.32-.7333.32-1.24V23.96c0-.5867-.106-1.0133-.32-1.28-.186-.2933-.546-.4933-1.08-.6l-.6-.16v-.4l6.88-2.32.4.4.36 3.44v.32c.374-.7467.854-1.4267 1.44-2.04.614-.64 1.28-1.16 2-1.56.747-.4 1.48-.6 2.2-.6 1.014 0 1.787.28 2.32.84.534.56.8 1.2667.8 2.12 0 .9067-.266 1.6133-.8 2.12-.506.48-1.12.72-1.84.72-1.12 0-2.106-.56-2.96-1.68l-.08-.08c-.266-.3733-.573-.5733-.92-.6-.346-.0533-.666.1067-.96.48-.266.24-.493.5333-.68.88-.16.32-.32.6933-.48 1.12v11.16c0 1.0667.467 1.7333 1.4 2l1.28.36v.4h-10.36Zm17.657 0v-.4l.56-.16c.933-.2667 1.4-.92 1.4-1.96V23.96c0-.5867-.094-1.0133-.28-1.28-.187-.2933-.547-.4933-1.08-.6l-.6-.16v-.4l6.84-2.32.4.4.32 2.4c.933-.8267 1.986-1.5067 3.16-2.04 1.173-.5333 2.333-.8 3.48-.8 1.76 0 3.106.48 4.04 1.44.96.96 1.44 2.4267 1.44 4.4v11.52c0 1.04.506 1.6933 1.52 1.96l.36.12v.4h-9.44v-.4l.52-.16c.933-.2933 1.4-.9467 1.4-1.96V23.72c0-1.7067-.854-2.56-2.56-2.56-1.174 0-2.454.5867-3.84 1.76v13.6c0 1.04.466 1.6933 1.4 1.96l.36.12v.4h-9.4Zm33.245.6c-2.027 0-3.787-.4133-5.28-1.24-1.494-.8533-2.654-2.0533-3.48-3.6-.8-1.5467-1.2-3.36-1.2-5.44 0-2.08.426-3.88 1.28-5.4.88-1.52 2.066-2.6933 3.56-3.52 1.52-.8267 3.226-1.24 5.12-1.24 1.893 0 3.586.4133 5.08 1.24 1.493.8 2.666 1.96 3.52 3.48.88 1.52 1.32 3.3333 1.32 5.44 0 2.1067-.414 3.9333-1.24 5.48-.8 1.52-1.947 2.7067-3.44 3.56-1.467.8267-3.214 1.24-5.24 1.24Zm0-.8c.933 0 1.68-.2667 2.24-.8.56-.5333.96-1.48 1.2-2.84.266-1.36.4-3.28.4-5.76 0-2.5067-.134-4.44-.4-5.8-.24-1.36-.64-2.3067-1.2-2.84-.56-.5333-1.307-.8-2.24-.8-.934 0-1.694.2667-2.28.8-.56.5333-.974 1.48-1.24 2.84-.24 1.36-.36 3.2933-.36 5.8 0 2.48.12 4.4.36 5.76.266 1.36.68 2.3067 1.24 2.84.586.5333 1.346.8 2.28.8Z"/>
  <path fill="#CDA274" d="M0 42.0003h13.4588V32.499c0-2.0137 1.631-3.6447 3.6447-3.6447s3.6447 1.631 3.6447 3.6447v9.5013h13.2493V8C15.2211 8 0 23.2211 0 42.0003Z"/>
</svg>
