<svg xmlns="http://www.w3.org/2000/svg" width="93" height="93" fill="none">
  <circle cx="46.5" cy="46.5" r="46.5" fill="#F4F0EC"/>
  <path stroke="#CDA274" stroke-miterlimit="10" stroke-width="2" d="M61.0012 55.0749c-1.2216-1.2307-4.1801-3.0267-5.6155-3.7506-1.8693-.9415-2.0232-1.0184-3.4924.0731-.98.7284-1.6316 1.3792-2.7785 1.1346-1.147-.2446-3.6394-1.6238-5.8217-3.7991-2.1824-2.1753-3.6417-4.7398-3.887-5.8828-.2454-1.143.4161-1.7869 1.1377-2.7691 1.0169-1.3846.94-1.6153.0707-3.4845-.6777-1.4538-2.5262-4.3844-3.7616-5.5998-1.3216-1.3053-1.3216-1.0745-2.1731-.7207-.6933.2917-1.3584.6462-1.987 1.0592-1.2308.8177-1.9139 1.4969-2.3916 2.5176s-.6923 3.4137 1.7747 7.895c2.467 4.4814 4.1978 6.7728 7.7802 10.345 3.5824 3.5721 6.337 5.4928 10.3641 7.7512 4.9816 2.7899 6.8924 2.246 7.9163 1.7691 1.0239-.4769 1.7062-1.1538 2.5255-2.3845.414-.6275.7694-1.2918 1.0615-1.9845.3546-.8484.5854-.8484-.7223-2.1692Z"/>
</svg>
